<?xml version="1.0" encoding="UTF-8"?>
<svg version="1.1" xmlns="http://www.w3.org/2000/svg" width="1024" height="1024" viewBox="0 0 1024 1024">
  <defs>
    <clipPath id="favicon-round"><circle cx="512" cy="512" r="512"/></clipPath>
  </defs>
  <g clip-path="url(#favicon-round)">
<path d="M0 0 C337.92 0 675.84 0 1024 0 C1024 337.92 1024 675.84 1024 1024 C686.08 1024 348.16 1024 0 1024 C0 686.08 0 348.16 0 0 Z " fill="#FAFCFC" transform="translate(0,0)"/>
<path d="M0 0 C9.08563408 7.96592565 15.63144694 17.66394204 17.41796875 29.85131836 C17.6064729 32.76736727 17.65712967 35.64061801 17.625 38.5625 C17.61460693 40.12025146 17.61460693 40.12025146 17.60400391 41.70947266 C17.22680377 55.26992176 13.0136154 67.99100408 5 79 C4.42765625 79.79148437 3.8553125 80.58296875 3.265625 81.3984375 C-6.72727666 94.48831282 -18.40474846 103.93112323 -32 113 C-32.92844727 113.62358398 -33.85689453 114.24716797 -34.81347656 114.88964844 C-40.85975285 118.95058027 -46.92196965 122.98676364 -53 127 C-52.20903931 126.63032104 -52.20903931 126.63032104 -51.40209961 126.25317383 C-40.43339563 121.15269672 -29.59745514 116.47194254 -18 113 C-16.94232422 112.63261719 -16.94232422 112.63261719 -15.86328125 112.2578125 C2.3796959 106.48021019 28.49208195 113.51256793 45 122 C53.28165375 126.92248062 53.28165375 126.92248062 56 131 C57.04741993 138.81682556 55.32944679 145.74103993 52.75 153.0625 C52.4008252 154.08037598 52.05165039 155.09825195 51.69189453 156.14697266 C47.32897042 168.45645069 41.90816855 180.35992211 36 192 C35.56518311 192.916604 35.13036621 193.83320801 34.68237305 194.77758789 C30.9279325 201.99188464 26.43622762 204.60282495 19.0625 207.6875 C18.04647705 208.1410083 17.0304541 208.5945166 15.98364258 209.06176758 C13.94829097 209.96935691 11.90788616 210.86570875 9.86230469 211.75 C5.92515202 213.46939796 2.05962785 215.3276514 -1.8125 217.1875 C-7.7470726 220 -7.7470726 220 -10 220 C-8.97280934 217.08962645 -7.90607898 214.87275217 -6.0625 212.375 C-1.81689101 205.42763983 -0.78960858 197.27568137 0.2800293 189.30883789 C1.74604482 178.52848527 3.8683138 165.1316862 12 157 C-11.02596429 156.87805038 -33.99098282 157.07567793 -57 158 C-51.39 158.66 -45.78 159.32 -40 160 C-44.81333176 169.62666351 -54.68806442 176.44025111 -63 183 C-64.08263831 183.87294557 -65.16464753 184.7466718 -66.24609375 185.62109375 C-88.0950459 203.18064253 -112.21183384 217.0259389 -137 230 C-137.86270508 230.54495117 -138.72541016 231.08990234 -139.61425781 231.65136719 C-144.5222969 233.60637209 -149.07149164 233.37081882 -154.3046875 233.29296875 C-155.38380402 233.28872391 -156.46292053 233.28447906 -157.57473755 233.28010559 C-161.00841624 233.2633642 -164.44149983 233.22571944 -167.875 233.1875 C-170.20832483 233.17244734 -172.5416589 233.15875995 -174.875 233.14648438 C-180.58353507 233.11347554 -186.29172501 233.06332105 -192 233 C-188.43142217 229.37143656 -184.76225034 226.1638172 -180.6875 223.125 C-176.39620233 219.87225742 -172.22664898 216.56495596 -168.21484375 212.96875 C-164.61386333 209.76787851 -160.9306696 206.6627071 -157.26269531 203.5390625 C-153.8711206 200.63972591 -150.56634778 197.67940002 -147.3125 194.625 C-142.6446403 190.36741652 -137.6049752 186.70717268 -132.5 183 C-125.64866146 178.00927395 -118.94712158 173.07501667 -113 167 C-112.19820313 166.18273437 -111.39640625 165.36546875 -110.5703125 164.5234375 C-98.9945575 151.72159007 -91.40880302 137.12514223 -90.3515625 119.87890625 C-89.59177981 111.49597061 -84.84768597 105.72192336 -80.0625 99.125 C-65.78759274 79.38818388 -62.18035687 56.46626761 -61.4375 32.5 C-61.37272461 30.5509375 -61.37272461 30.5509375 -61.30664062 28.5625 C-61.2011749 25.37509155 -61.09905552 22.18761302 -61 19 C-92.95251848 19.37036639 -122.89888873 31.20024343 -148 51 C-148.83660156 51.64582031 -149.67320312 52.29164063 -150.53515625 52.95703125 C-155.85482416 57.12561182 -160.90131826 61.53829323 -165.87109375 66.1171875 C-168 68 -168 68 -171 70 C-169.41916072 64.03012249 -166.30509622 59.18405588 -163.0625 54 C-162.47766846 53.06446289 -161.89283691 52.12892578 -161.2902832 51.16503906 C-149.80266989 33.04065798 -135.38103027 15.74236303 -118 3 C-117.28070313 2.4534375 -116.56140625 1.906875 -115.8203125 1.34375 C-86.130151 -19.97226338 -29.02459605 -23.95523167 0 0 Z " fill="#03808C" transform="translate(589,271)"/>
<path d="M0 0 C0.66 0.33 1.32 0.66 2 1 C1.32517578 1.60521484 1.32517578 1.60521484 0.63671875 2.22265625 C-12.57320039 14.69133744 -24.42017702 31.49152868 -25.37109375 50.13671875 C-25.70598035 65.35772323 -23.62660237 76.72387404 -14 89 C-13.37609375 89.79921875 -12.7521875 90.5984375 -12.109375 91.421875 C11.69650138 119.81258683 52.95107147 129.79469194 88 135 C88.98468262 135.14727036 88.98468262 135.14727036 89.98925781 135.29751587 C104.8297026 137.4227874 119.76280509 137.34190361 134.72119141 137.31567383 C137.55956961 137.311062 140.39751727 137.31790584 143.23583984 137.33618164 C162.01442878 137.4558403 180.36534607 136.6111323 199 134 C199.78020508 133.89295746 200.56041016 133.78591492 201.36425781 133.67562866 C205.59005903 133.08738903 209.79608887 132.41478617 214 131.6875 C215.2372583 131.47657715 216.4745166 131.2656543 217.74926758 131.04833984 C236.90207721 127.70309467 255.7686627 123.25511653 274.51049805 118.09619141 C276.11405151 117.6637915 276.11405151 117.6637915 277.75 117.22265625 C278.69359375 116.96234619 279.6371875 116.70203613 280.609375 116.43383789 C283 116 283 116 286 117 C276.67282857 120.68250255 267.339082 124.34783018 258 128 C257.13455566 128.33966797 256.26911133 128.67933594 255.37744141 129.02929688 C245.39780489 132.93350597 235.31160449 136.11614891 225 139 C223.49601633 139.4268106 221.99211087 139.85389691 220.48828125 140.28125 C198.08363841 146.61446267 175.30968262 152.39201042 152.25 155.75 C151.42185791 155.87060791 150.59371582 155.99121582 149.74047852 156.11547852 C145.14269992 156.73109743 140.60566596 157.08432252 135.96875 157.234375 C121.30066622 157.79436626 112.39764786 160.74996597 101 170 C99.93860954 170.81435081 98.87497558 171.6257901 97.80859375 172.43359375 C94.72034369 174.82775631 91.76329917 177.23670083 89 180 C89.01683535 182.87367384 89.01683535 182.87367384 89.4375 186.0625 C89.66065 188.03796476 89.85690615 190.01712807 90 192 C89 193 89 193 85.4375 193.3125 C79.36410201 193.22526987 74.94449434 190.75004491 70.5 186.75 C68.4870026 183.05950477 68.16280141 180.04767318 69 176 C71.60228408 169.66592981 75.88493776 164.40713539 80 159 C78.75089844 159.03480469 77.50179687 159.06960938 76.21484375 159.10546875 C36.25857945 159.87475505 -11.79253277 150.0607154 -42.1953125 121.94140625 C-54.95463513 108.21546827 -60.00127405 93.25526001 -59.4140625 74.6953125 C-58.02035623 53.07095175 -40.88803371 32.24703 -25.20654297 18.41845703 C-17.21670338 11.73899438 -8.65865716 5.77243811 0 0 Z " fill="#04647C" transform="translate(289,375)"/>
<path d="M0 0 C30.43821146 -0.630827 67.25011379 -0.8899021 91.125 21.375 C98.05465319 29.06442613 100.95542984 36.02046157 100.546875 46.47265625 C99.07025894 55.99682985 93.24803159 63.90763981 87 71 C86.39027344 71.70382812 85.78054688 72.40765625 85.15234375 73.1328125 C63.39884389 96.52096842 30.28501936 108.55815329 1.125 119.5 C0.46153564 119.74948395 -0.20192871 119.9989679 -0.88549805 120.25601196 C-13.164104 124.85362111 -25.61413888 128.70268157 -38.25 132.1875 C-39.16523437 132.44724609 -40.08046875 132.70699219 -41.0234375 132.97460938 C-46.70037907 134.53940737 -52.1305371 135.50289243 -58 136 C-58.114646 136.56895996 -58.22929199 137.13791992 -58.34741211 137.72412109 C-59.0698371 140.2435546 -60.10544873 142.16055306 -61.44140625 144.4140625 C-61.93882324 145.25316162 -62.43624023 146.09226074 -62.94873047 146.95678711 C-63.48127441 147.83729736 -64.01381836 148.71780762 -64.5625 149.625 C-65.10535645 150.52420166 -65.64821289 151.42340332 -66.20751953 152.34985352 C-71.33203613 160.72445243 -76.68388477 169.45592318 -85 175 C-87.6875 175.5625 -87.6875 175.5625 -90 175 C-94.66843226 170.16483802 -94.20349765 164.79148101 -94.16796875 158.453125 C-93.94324811 153.83328677 -93.13164726 149.47606908 -92 145 C-93.2375 145.433125 -94.475 145.86625 -95.75 146.3125 C-101.9323969 148.18756172 -108.21794944 149.03740327 -114.60253906 149.90942383 C-118.54344144 150.45351514 -122.40382922 151.0585442 -126.2734375 151.98828125 C-132.29791939 153.38425434 -138.42260487 153.95902355 -144.5625 154.625 C-146.36170898 154.82609375 -146.36170898 154.82609375 -148.19726562 155.03125 C-151.13105608 155.35852543 -154.06526416 155.68133322 -157 156 C-156.505 155.01 -156.505 155.01 -156 154 C-153.62244238 153.34848746 -151.28585246 152.80984369 -148.875 152.3125 C-137.72132579 149.83800936 -126.87944178 146.46740958 -116 143 C-114.40937744 142.49509033 -114.40937744 142.49509033 -112.78662109 141.97998047 C-86.06260961 133.44120656 -60.2923741 123.13215059 -35 111 C-34.21705566 110.6277832 -33.43411133 110.25556641 -32.62744141 109.87207031 C-17.11333192 102.47090874 -2.04406529 93.92287235 12 84 C13.41925781 83.01 13.41925781 83.01 14.8671875 82 C30.19498318 70.94121903 46.10985175 57.44868049 51.6875 38.6875 C52.52690323 31.46863222 52.95663518 25.91808384 48.53125 19.80859375 C37.00935619 6.19982632 16.80616662 3.41906944 0 1 C0 0.67 0 0.34 0 0 Z " fill="#ED6B0D" transform="translate(657,373)"/>
<path d="M0 0 C9.08563408 7.96592565 15.63144694 17.66394204 17.41796875 29.85131836 C17.6064729 32.76736727 17.65712967 35.64061801 17.625 38.5625 C17.61460693 40.12025146 17.61460693 40.12025146 17.60400391 41.70947266 C17.22680377 55.26992176 13.0136154 67.99100408 5 79 C4.42765625 79.79148437 3.8553125 80.58296875 3.265625 81.3984375 C-2.84840668 89.40731371 -10.49534266 98.44939399 -19 104 C-19.66 104 -20.32 104 -21 104 C-20.11047718 96.50259336 -20.11047718 96.50259336 -19.49731445 93.71313477 C-16.35879399 76.59071067 -18.36339897 59.14350454 -27.25 44.1875 C-28.4686875 42.43612393 -29.71896753 40.70630395 -31 39 C-31.93392578 37.70449219 -31.93392578 37.70449219 -32.88671875 36.3828125 C-39.16229408 28.51742476 -47.0071196 24.98181872 -56 21 C-56.66 20.67 -57.32 20.34 -58 20 C-90.53519213 16.91923747 -122.78307216 31.10888732 -148 51 C-148.83660156 51.64582031 -149.67320312 52.29164063 -150.53515625 52.95703125 C-155.85482416 57.12561182 -160.90131826 61.53829323 -165.87109375 66.1171875 C-168 68 -168 68 -171 70 C-169.41916072 64.03012249 -166.30509622 59.18405588 -163.0625 54 C-162.47766846 53.06446289 -161.89283691 52.12892578 -161.2902832 51.16503906 C-149.80266989 33.04065798 -135.38103027 15.74236303 -118 3 C-117.28070313 2.4534375 -116.56140625 1.906875 -115.8203125 1.34375 C-86.130151 -19.97226338 -29.02459605 -23.95523167 0 0 Z " fill="#F1710C" transform="translate(589,271)"/>
<path d="M0 0 C1.09920823 1.64881235 2.18307236 3.30972241 3.19140625 5.015625 C8.43322642 13.55785047 14.46035808 18.60858395 24.11523438 21.33496094 C29.39642141 22.55245869 34.74199344 23.11477314 40.125 23.6875 C41.27226563 23.81705078 42.41953125 23.94660156 43.6015625 24.08007812 C46.40023735 24.39492905 49.19955364 24.70139241 52 25 C47.45479081 34.65207185 37.19898009 41.52939516 29 48 C27.91736169 48.87294557 26.83535247 49.7466718 25.75390625 50.62109375 C3.9049541 68.18064253 -20.21183384 82.0259389 -45 95 C-45.86270508 95.54495117 -46.72541016 96.08990234 -47.61425781 96.65136719 C-52.5222969 98.60637209 -57.07149164 98.37081882 -62.3046875 98.29296875 C-63.38380402 98.28872391 -64.46292053 98.28447906 -65.57473755 98.28010559 C-69.00841624 98.2633642 -72.44149983 98.22571944 -75.875 98.1875 C-78.20832483 98.17244734 -80.5416589 98.15875995 -82.875 98.14648438 C-88.58353507 98.11347554 -94.29172501 98.06332105 -100 98 C-96.43142217 94.37143656 -92.76225034 91.1638172 -88.6875 88.125 C-84.39620233 84.87225742 -80.22664898 81.56495596 -76.21484375 77.96875 C-72.61386333 74.76787851 -68.9306696 71.6627071 -65.26269531 68.5390625 C-61.8711206 65.63972591 -58.56634778 62.67940002 -55.3125 59.625 C-50.6446403 55.36741652 -45.6049752 51.70717268 -40.5 48 C-22.00256259 34.52589678 -10.45524125 20.21466609 0 0 Z " fill="#03566C" transform="translate(497,406)"/>
<path d="M0 0 C6.10816812 5.72838565 8.53203995 12.79693558 9 21 C9.09667969 22.36898437 9.09667969 22.36898437 9.1953125 23.765625 C9.64851913 35.79070767 7.93511086 50.47786697 0 60 C-5.94047862 63.7020374 -13.42041064 62.1199301 -20 61 C-22.45489316 66.12325529 -23.50341703 70.33895411 -24 76 C-26.66855292 73.55111454 -28.49802678 70.81970131 -30.5 67.8125 C-34.22470896 62.5951433 -38.27112855 59.191858 -43.58203125 55.65625 C-45.6568233 54.23506772 -47.3073142 52.84452141 -49 51 C-48.319375 50.443125 -47.63875 49.88625 -46.9375 49.3125 C-44.75916755 47.21536809 -44.75916755 47.21536809 -45 44.75 C-46.11942069 41.67159311 -47.51047256 38.84636528 -49.0625 35.96484375 C-52.29391573 29.19233496 -52.23534703 20.22557954 -50.1640625 13.140625 C-46.03872569 4.2254676 -39.21454239 -2.5345308 -30 -6 C-19.5148369 -9.22620403 -8.49744742 -6.60102139 0 0 Z " fill="#03989C" transform="translate(630,208)"/>
<path d="M0 0 C6.21774524 3.86069149 11.10019873 9.66899915 13.0625 16.7578125 C14.84220712 27.91276246 14.46770926 39.23288076 7.921875 48.80859375 C4.30610507 53.24686991 0.61889107 55.99073967 -4.5 58.5 C-5.49 58.995 -5.49 58.995 -6.5 59.5 C-9.26367582 59.65159403 -11.98532157 59.73141393 -14.75 59.75 C-15.50152344 59.770625 -16.25304687 59.79125 -17.02734375 59.8125 C-18.13529297 59.82023438 -18.13529297 59.82023438 -19.265625 59.828125 C-20.26770996 59.84214355 -20.26770996 59.84214355 -21.29003906 59.85644531 C-23.5 59.5 -23.5 59.5 -29.5 56.5 C-29.5 65.41 -29.5 74.32 -29.5 83.5 C-34.12 83.5 -38.74 83.5 -43.5 83.5 C-43.5 55.78 -43.5 28.06 -43.5 -0.5 C-39.54 -0.5 -35.58 -0.5 -31.5 -0.5 C-31.17 1.15 -30.84 2.8 -30.5 4.5 C-29.95730469 4.15066406 -29.41460938 3.80132813 -28.85546875 3.44140625 C-27.78232422 2.75884766 -27.78232422 2.75884766 -26.6875 2.0625 C-25.97980469 1.61003906 -25.27210938 1.15757812 -24.54296875 0.69140625 C-18.09419672 -3.0693499 -6.82396794 -3.05530714 0 0 Z " fill="#EB6D14" transform="translate(642.5,622.5)"/>
<path d="M0 0 C42.62943038 0 42.62943038 0 51.53125 8.29296875 C57.26709233 14.95935997 58.31055911 22.62557231 58.21875 31.15234375 C57.64966913 38.56055728 54.78420107 45.49101355 49.28125 50.59375 C41.52153488 56.87542415 33.75745242 58.48222898 23.9375 58.1875 C19.5134375 58.0946875 19.5134375 58.0946875 15 58 C15 67.24 15 76.48 15 86 C10.05 86 5.1 86 0 86 C0 57.62 0 29.24 0 0 Z " fill="#058A8F" transform="translate(198,595)"/>
<path d="M0 0 C1.46611205 0.89209191 2.90808342 1.8261296 4.3125 2.8125 C4.89257812 3.18503906 5.47265625 3.55757812 6.0703125 3.94140625 C11.3424983 7.74320857 14.30047842 13.77643526 16.3125 19.8125 C17.11553146 31.41038056 16.59726106 40.77335919 9.0625 50.1875 C4.03393601 55.55202409 -2.29592845 58.60786512 -9.63671875 59.05078125 C-11.21604412 59.0813317 -12.7954953 59.10584675 -14.375 59.125 C-15.15294922 59.15400391 -15.93089844 59.18300781 -16.73242188 59.21289062 C-24.11367224 59.29292086 -28.89167343 56.73120451 -34.875 52.625 C-41.91527622 45.58472378 -44.67391002 37.14411222 -45 27.375 C-44.73708323 17.83112136 -41.87304222 11.92608897 -35.18359375 5.0546875 C-25.72128296 -3.44510341 -11.67868166 -5.5654837 0 0 Z " fill="#067C87" transform="translate(497.6875,623.1875)"/>
<path d="M0 0 C16.65931749 -1.66257302 16.65931749 -1.66257302 21.65625 1.88671875 C23.72266478 4.81559902 25.33609857 7.82442643 27 11 C28.89180486 13.90099676 30.88666599 16.72714082 32.875 19.5625 C34.2149416 21.53353421 35.55368835 23.50535547 36.89013672 25.47875977 C38.05591824 27.15890141 38.05591824 27.15890141 40 29 C40.46374023 28.29915283 40.92748047 27.59830566 41.40527344 26.8762207 C43.14035775 24.25646885 44.87757452 21.63814748 46.61621094 19.02075195 C47.365756 17.89143094 48.11446874 16.76155702 48.86230469 15.63110352 C49.94242542 13.99868104 51.02587201 12.36846075 52.109375 10.73828125 C52.75874023 9.75899658 53.40810547 8.77971191 54.07714844 7.77075195 C54.71168945 6.85640381 55.34623047 5.94205566 56 5 C56.64646484 4.06671875 57.29292969 3.1334375 57.95898438 2.171875 C60 0 60 0 62.19824219 -0.56762695 C63.36081543 -0.52835083 63.36081543 -0.52835083 64.546875 -0.48828125 C65.39121094 -0.47216797 66.23554687 -0.45605469 67.10546875 -0.43945312 C68.41451172 -0.37661133 68.41451172 -0.37661133 69.75 -0.3125 C71.08224609 -0.27866211 71.08224609 -0.27866211 72.44140625 -0.24414062 C74.62932812 -0.18532552 76.81379671 -0.10321268 79 0 C75.48055627 5.74880198 71.83466477 11.32223762 67.75 16.6875 C64.06790182 21.53771208 60.4914267 26.44803944 57 31.4375 C56.51885742 32.11192139 56.03771484 32.78634277 55.54199219 33.48120117 C51.9749949 38.31825512 51.9749949 38.31825512 51 44 C52.61940459 47.00001973 54.66321676 49.62436232 56.75 52.3125 C57.95349221 53.91671779 59.15528275 55.52221344 60.35546875 57.12890625 C60.96567871 57.93859863 61.57588867 58.74829102 62.20458984 59.58251953 C64.92055708 63.23950996 67.49816254 66.98579819 70.0625 70.75 C70.50239258 71.39235596 70.94228516 72.03471191 71.39550781 72.6965332 C72.21580114 73.89672686 73.03350851 75.09869363 73.84814453 76.30273438 C74.62300098 77.44448978 75.40539079 78.58116505 76.19482422 79.71289062 C79 83.7810719 79 83.7810719 79 86 C66.12960266 87.64971522 66.12960266 87.64971522 60 86 C56.10068588 82.48287031 54.1927417 78.67291053 51.99462891 73.96777344 C50.3543764 70.72269853 48.20617116 67.86422203 46.0625 64.9375 C43.5104729 61.3682628 41.45409947 58.14913198 40 54 C39.34 54 38.68 54 38 54 C37.73429199 54.72453369 37.46858398 55.44906738 37.19482422 56.19555664 C35.99410465 59.01383732 34.59501524 61.33536007 32.8828125 63.87109375 C32.27566406 64.77537109 31.66851563 65.67964844 31.04296875 66.61132812 C30.41003906 67.54396484 29.77710938 68.47660156 29.125 69.4375 C28.18720703 70.8306543 28.18720703 70.8306543 27.23046875 72.25195312 C26.02138742 74.04768173 24.80233796 75.83674863 23.57226562 77.61816406 C22.00943525 79.88335999 22.00943525 79.88335999 21.00585938 81.98339844 C20.1640625 83.63671875 20.1640625 83.63671875 18 86 C14.7173999 86.7150637 11.58866282 86.56733065 8.25 86.375 C7.36183594 86.34792969 6.47367188 86.32085938 5.55859375 86.29296875 C3.36991605 86.22236624 1.18620432 86.12385527 -1 86 C2.87359521 78.45843802 7.66240535 71.6980518 12.64306641 64.86572266 C14.904524 61.75632019 17.13938973 58.6280092 19.375 55.5 C19.77936279 54.93708252 20.18372559 54.37416504 20.6003418 53.79418945 C21.74105376 52.20146592 22.87069859 50.60083428 24 49 C24.79664063 47.9790625 25.59328125 46.958125 26.4140625 45.90625 C28.30370007 43.17395162 28.30370007 43.17395162 27.53125 40.52734375 C25.65562147 37.43159973 23.64651225 34.47351222 21.5 31.5625 C20.59877617 30.32174687 19.69774 29.08085743 18.796875 27.83984375 C18.33474609 27.20675293 17.87261719 26.57366211 17.39648438 25.92138672 C15.15677516 22.83982876 12.95601563 19.73071569 10.75 16.625 C7.57708695 12.16259044 4.34752941 7.75652908 0.9609375 3.453125 C0 2 0 2 0 0 Z " fill="#EC7515" transform="translate(514,595)"/>
<path d="M0 0 C4.95 0 9.9 0 15 0 C15.33 11.55 15.66 23.1 16 35 C18.97 33.35 21.94 31.7 25 30 C31.82086122 28.8280057 39.30462096 28.9598919 45.3828125 32.5859375 C48.95391619 35.70849677 50.91107894 39.82215787 53 44 C53.08963847 45.48100811 53.11757925 46.96599424 53.11352539 48.44970703 C53.11344986 49.37051056 53.11337433 50.29131409 53.11329651 51.24002075 C53.10813522 52.23589203 53.10297394 53.23176331 53.09765625 54.2578125 C53.0962413 55.27600067 53.09482635 56.29418884 53.09336853 57.3432312 C53.087759 60.60385035 53.07520488 63.86440151 53.0625 67.125 C53.05748623 69.33203026 53.05292311 71.53906159 53.04882812 73.74609375 C53.03778647 79.16408881 53.02051543 84.58203286 53 90 C48.38 90 43.76 90 39 90 C38.970271 88.12296387 38.970271 88.12296387 38.93994141 86.20800781 C38.86384707 81.563598 38.77513537 76.91949992 38.68261719 72.27539062 C38.64434331 70.26568762 38.60948764 68.25591649 38.578125 66.24609375 C38.53244009 63.3565232 38.47445113 60.46742104 38.4140625 57.578125 C38.40251129 56.68007141 38.39096008 55.78201782 38.37905884 54.85675049 C38.35918915 54.01618103 38.33931946 53.17561157 38.31884766 52.30957031 C38.30552399 51.57232727 38.29220032 50.83508423 38.2784729 50.07550049 C37.95643764 47.67532317 37.26748565 46.05669332 36 44 C33.63894005 42.81947002 32.00980382 42.73104474 29.375 42.625 C28.55773437 42.57601562 27.74046875 42.52703125 26.8984375 42.4765625 C22.55714041 43.26057033 19.18550747 44.91266664 16 48 C14.84701691 51.22217384 14.92616347 54.28031576 15 57.67578125 C14.98912354 58.6009404 14.97824707 59.52609955 14.96704102 60.47929382 C14.94091176 63.42488516 14.96970592 66.36700178 15 69.3125 C14.99190733 71.313169 14.98022941 73.31382692 14.96484375 75.31445312 C14.93501062 80.21047943 14.95441864 85.10411842 15 90 C10.05 90 5.1 90 0 90 C0 60.3 0 30.6 0 0 Z " fill="#0C858D" transform="translate(262,591)"/>
<path d="M0 0 C5.65288597 4.22561655 9.355497 8.94538313 11.96484375 15.46875 C11.96484375 21.07875 11.96484375 26.68875 11.96484375 32.46875 C-1.56515625 32.46875 -15.09515625 32.46875 -29.03515625 32.46875 C-26.09335343 40.31355753 -25.45722596 41.94185302 -18.84765625 45.71875 C-11.42912926 47.69702386 -4.68081769 46.39216527 2.51953125 44.125 C4.96484375 43.46875 4.96484375 43.46875 8.96484375 43.46875 C10.24802267 47.31828676 10.03128012 50.41613135 9.96484375 54.46875 C-1.68593301 58.99843717 -1.68593301 58.99843717 -8.03515625 59.46875 C-8.70804688 59.5203125 -9.3809375 59.571875 -10.07421875 59.625 C-18.62134676 59.98742239 -27.40010385 58.04822588 -34.03515625 52.46875 C-40.47409925 46.09934202 -44.3596279 40.14817492 -44.50390625 30.96044922 C-44.49359375 30.20006348 -44.48328125 29.43967773 -44.47265625 28.65625 C-44.46363281 27.86234863 -44.45460938 27.06844727 -44.4453125 26.25048828 C-44.19117332 17.62211 -42.23892321 11.5376907 -36.34765625 5.09375 C-26.81736233 -3.51313335 -11.74148382 -6.31020244 0 0 Z " fill="#EC7016" transform="translate(707.03515625,623.53125)"/>
<path d="M0 0 C3.69230769 0.69230769 3.69230769 0.69230769 5 2 C6.4195326 16.76313908 -2.11137135 30.89568622 -10.8125 42.1875 C-21.09952468 54.39958192 -32.87253427 66.57027628 -49.203125 69.37890625 C-57.02310526 70.02145708 -62.56464948 65.78948235 -68.41015625 61.04296875 C-70.31071106 59.39716202 -72.17210525 57.72577773 -74 56 C-73.37462697 51.86643683 -71.97111471 48.61315267 -70.125 44.875 C-64.53520822 32.87772509 -63.41676805 22.06352279 -63 9 C-59.79043457 11.94384977 -57.77462634 14.87687553 -55.6875 18.6875 C-50.71732141 28.11338077 -50.71732141 28.11338077 -43 35 C-34.37748843 35.71450587 -27.80909979 30.41773578 -21.4609375 25.1328125 C-13.25482956 17.96740297 -6.99998162 10.04572392 -1 1 C-0.67 0.67 -0.34 0.34 0 0 Z " fill="#DF580A" transform="translate(676,293)"/>
<path d="M0 0 C5.28 0 10.56 0 16 0 C17.65532333 3.98304156 19.30978476 7.96642025 20.9621582 11.95068359 C21.52319366 13.3027742 22.08470687 14.65466668 22.64672852 16.00634766 C25.53970448 22.96491919 28.4247385 29.91577187 31 37 C33.36531447 34.63468553 33.90322292 32.84213408 34.98828125 29.6875 C35.36533203 28.61113281 35.74238281 27.53476562 36.13085938 26.42578125 C36.90774099 24.17346663 37.68380662 21.92087036 38.45898438 19.66796875 C40.86256361 12.81105742 43.61110288 6.42990745 47 0 C51.62 0 56.24 0 61 0 C58.34603827 8.53262965 54.87902906 16.70213652 51.4375 24.9375 C46.50700383 36.77001777 41.72129656 48.62701267 37.37280273 60.68920898 C34.00399794 69.76185011 29.83178402 78.50903344 20.8671875 83.08984375 C17.12058132 84.27916152 13.57102066 84.21523372 9.6875 84.125 C8.94693359 84.11597656 8.20636719 84.10695313 7.44335938 84.09765625 C5.62876533 84.07424213 3.81433929 84.03837615 2 84 C2.14168137 82.56208484 2.28851043 81.1246763 2.4375 79.6875 C2.51871094 78.88699219 2.59992188 78.08648438 2.68359375 77.26171875 C3 75 3 75 4 72 C4.74765625 71.93941406 5.4953125 71.87882813 6.265625 71.81640625 C7.25046875 71.73261719 8.2353125 71.64882813 9.25 71.5625 C10.22453125 71.48128906 11.1990625 71.40007812 12.203125 71.31640625 C14.58862339 71.04653841 16.73867807 70.80023949 19 70 C20.21297649 67.7193293 20.21297649 67.7193293 21 65 C21.37125 64.195625 21.7425 63.39125 22.125 62.5625 C24.42217133 55.83506967 21.96765456 50.78584658 19.23828125 44.6484375 C18.85061081 43.75315338 18.46294037 42.85786926 18.06352234 41.93545532 C16.82335866 39.07741188 15.56835832 36.22617691 14.3125 33.375 C13.48661068 31.48091298 12.66173065 29.58638552 11.83789062 27.69140625 C10.64195796 24.94170705 9.44504367 22.1924771 8.24343872 19.44525146 C5.42125019 12.99244713 2.67869086 6.51396514 0 0 Z " fill="#087583" transform="translate(316,622)"/>
<path d="M0 0 C0.79970215 -0.00128906 1.5994043 -0.00257813 2.42333984 -0.00390625 C8.55574981 0.10602491 12.91366044 1.21272471 18.25 4.375 C18.25 8.005 18.25 11.635 18.25 15.375 C16.5175 14.88 14.785 14.385 13 13.875 C6.77649685 12.31542855 0.65068597 11.57230811 -5.75 12.375 C-6.41 13.035 -7.07 13.695 -7.75 14.375 C-7.89091482 16.84826954 -7.89091482 16.84826954 -6.75 19.375 C-2.36360421 22.72497605 2.1798705 24.67784188 7.25 26.6875 C14.23557898 29.5827604 18.7312931 32.33758621 22.25 39.375 C22.62362894 44.97943405 22.48200076 48.5791279 19.25 53.375 C14.42325052 58.35668218 9.99920191 61.37291927 2.921875 61.67578125 C1.28130969 61.69031122 -0.35938291 61.69391869 -2 61.6875 C-3.21236328 61.71166992 -3.21236328 61.71166992 -4.44921875 61.73632812 C-11.07067013 61.74162529 -16.81969124 60.34015438 -22.75 57.375 C-22.75 53.415 -22.75 49.455 -22.75 45.375 C-16.75 47.375 -16.75 47.375 -10.75 49.375 C-8.41894093 49.49547541 -6.08413858 49.55034303 -3.75 49.5625 C-1.89375 49.58376953 -1.89375 49.58376953 0 49.60546875 C3.39759425 49.63371019 3.39759425 49.63371019 6.25 47.375 C6.50015873 43.79142759 6.50015873 43.79142759 6.25 40.375 C5.40308594 40.10171875 4.55617188 39.8284375 3.68359375 39.546875 C-16.93686336 32.50917633 -16.93686336 32.50917633 -22.1875 24.0625 C-23.33490513 18.58045327 -23.64719833 14.13616709 -21.0625 9.0625 C-14.8555794 1.84905174 -9.20743726 -0.01520948 0 0 Z " fill="#0A7B86" transform="translate(400.75,620.625)"/>
<path d="M0 0 C0.33 0 0.66 0 1 0 C1.09796875 0.81082031 1.1959375 1.62164062 1.296875 2.45703125 C3.39711754 18.00968937 8.31381682 28.7653974 20.37109375 39.02734375 C33.90098742 49.17978997 49.78140227 54.76906146 66 59 C67.30214753 59.35393057 68.60422913 59.70810379 69.90625 60.0625 C71.24965581 60.41796998 72.59340012 60.7721635 73.9375 61.125 C75.12214844 61.43695313 76.30679688 61.74890625 77.52734375 62.0703125 C89.26199535 64.72833635 101.33593909 65.42478346 113.3125 66.125 C114.72073242 66.21176544 116.1289358 66.29900341 117.53710938 66.38671875 C123.76417807 66.82115066 123.76417807 66.82115066 130 67 C128.63016497 70.16115776 128.0109362 70.9927092 125 73 C124.01 73 123.02 73 122 73 C122 73.66 122 74.32 122 75 C119.78469793 77.9592468 118.57432111 78.90859802 114.8828125 79.49609375 C78.96247283 78.93600529 39.65274688 70.36666066 12.6875 45.25 C2.18726751 34.34975866 -1.41855149 20.52541472 -1.203125 5.71484375 C-1 3 -1 3 0 0 Z " fill="#2E778B" transform="translate(275,419)"/>
<path d="M0 0 C4.29 0 8.58 0 13 0 C13 6.27 13 12.54 13 19 C17.95 19 22.9 19 28 19 C28 22.63 28 26.26 28 30 C23.05 30 18.1 30 13 30 C13.09692673 34.78767045 13.19964748 39.57447297 13.31738281 44.36157227 C13.35566618 45.99007549 13.39052024 47.61866309 13.421875 49.24731445 C13.46754002 51.58836014 13.52553077 53.9288253 13.5859375 56.26953125 C13.59748871 56.99775589 13.60903992 57.72598053 13.62094116 58.47627258 C13.72878512 62.16961374 13.89884276 63.84826414 16 67 C22.435 66.505 22.435 66.505 29 66 C29.495 71.445 29.495 71.445 30 77 C25.29672243 78.8372178 21.00326614 79.36559536 16 79.375 C15.31421875 79.39949219 14.6284375 79.42398438 13.921875 79.44921875 C8.78072308 79.47865283 5.85301831 78.37139102 2 75 C-1.26519453 69.89900941 -1.40311308 65.73088551 -1.29296875 59.8828125 C-1.28872391 59.02565643 -1.28447906 58.16850037 -1.28010559 57.28536987 C-1.26339886 54.56491836 -1.22576219 51.84522518 -1.1875 49.125 C-1.17244278 47.27344825 -1.1587562 45.42188481 -1.14648438 43.5703125 C-1.11352165 39.04658567 -1.06179537 34.52342113 -1 30 C-4.3 30 -7.6 30 -11 30 C-11 27.03 -11 24.06 -11 21 C-10.36191406 20.82984375 -9.72382812 20.6596875 -9.06640625 20.484375 C-7.82697266 20.12085938 -7.82697266 20.12085938 -6.5625 19.75 C-5.73878906 19.51796875 -4.91507813 19.2859375 -4.06640625 19.046875 C-1.88894505 18.21475232 -1.88894505 18.21475232 -1.25 16.34375 C-0.9090396 13.14724629 -0.6454419 9.95824644 -0.4375 6.75 C-0.35371094 5.48671875 -0.26992188 4.2234375 -0.18359375 2.921875 C-0.12300781 1.95765625 -0.06242188 0.9934375 0 0 Z " fill="#F07B16" transform="translate(779,603)"/>
<path d="M0 0 C-0.11487748 1.58409994 -0.24234508 3.16728963 -0.375 4.75 C-0.44460938 5.63171875 -0.51421875 6.5134375 -0.5859375 7.421875 C-0.99850055 9.99066382 -1.71160957 11.75841015 -3 14 C-3.72445312 13.95359375 -4.44890625 13.9071875 -5.1953125 13.859375 C-11.32855863 13.63040048 -15.27231273 13.62688928 -20 18 C-23.25918327 22.25756227 -23.46822354 26.17885063 -23.51171875 31.36328125 C-23.52966995 32.15526413 -23.54762115 32.94724701 -23.56611633 33.76322937 C-23.62006838 36.27959962 -23.65406563 38.79578185 -23.6875 41.3125 C-23.72068651 43.02411462 -23.75517741 44.73570448 -23.79101562 46.44726562 C-23.87578582 50.63137442 -23.94266843 54.81542893 -24 59 C-28.62 59 -33.24 59 -38 59 C-38 39.53 -38 20.06 -38 0 C-34.04 0 -30.08 0 -26 0 C-25 1 -25 1 -24.90234375 3.06640625 C-24.91394531 3.89011719 -24.92554688 4.71382812 -24.9375 5.5625 C-24.94652344 6.38878906 -24.95554687 7.21507812 -24.96484375 8.06640625 C-24.97644531 8.70449219 -24.98804688 9.34257813 -25 10 C-24.34 10 -23.68 10 -23 10 C-22.835 9.29875 -22.67 8.5975 -22.5 7.875 C-17.82773219 -1.08017997 -9.17410281 -3.05803427 0 0 Z " fill="#EE7813" transform="translate(767,622)"/>
<path d="M0 0 C4.41387076 2.45856726 7.2347498 5.1859523 9.21875 9.859375 C11.14989678 17.02526558 10.53685484 24.68324625 6.83984375 31.1640625 C3.88493598 34.74105612 1.36071859 37.00755963 -3.16015625 38.1640625 C-7.89799195 38.61528495 -10.1470967 38.67059227 -14.41015625 36.5390625 C-18.21626764 33.2519663 -20.56979678 29.9351409 -22.16015625 25.1640625 C-22.30663707 22.89642676 -22.38111885 20.62373884 -22.41015625 18.3515625 C-22.44882812 16.54751953 -22.44882812 16.54751953 -22.48828125 14.70703125 C-22.06772457 10.16602046 -20.74764967 6.90451753 -17.66015625 3.51953125 C-12.21627238 -0.71932624 -6.65920631 -2.57698038 0 0 Z " fill="#F7FAFB" transform="translate(490.16015625,632.8359375)"/>
<path d="M0 0 C5.16497058 5.03584632 5.70521297 9.36892349 5.9375 16.375 C5.78263514 22.21030794 5.37241008 26.89781021 1.5 31.4375 C-3.21209239 35.85644379 -7.64728363 36.98966677 -14.0078125 36.90625 C-17.17338383 36.31084473 -19.65093852 34.91069711 -22.5 33.4375 C-22.69844229 29.25685528 -22.84321495 25.07873001 -22.93945312 20.89477539 C-22.97957871 19.4733912 -23.03409912 18.05233514 -23.10351562 16.63208008 C-23.66185266 4.9111077 -23.66185266 4.9111077 -20.88134766 1.38452148 C-14.40375056 -2.91776315 -7.00465676 -3.12707891 0 0 Z " fill="#FDFBF9" transform="translate(635.5,634.5625)"/>
<path d="M0 0 C4.62 0 9.24 0 14 0 C14 19.47 14 38.94 14 59 C9.38 59 4.76 59 0 59 C0 39.53 0 20.06 0 0 Z " fill="#077B85" transform="translate(431,622)"/>
<path d="M0 0 C18.10810811 0 18.10810811 0 25 5.3125 C28.62969572 10.16844427 27.79890035 17.307835 27 23 C24.99594386 27.07073904 22.71782466 29.39752274 19 32 C12.98335642 34.00554786 6.3420992 33 0 33 C0 22.11 0 11.22 0 0 Z " fill="#FAFCFC" transform="translate(213,607)"/>
<path d="M0 0 C0 3.38806116 -0.6393851 4.45503045 -2.34375 7.31640625 C-2.84438965 8.15872803 -3.3450293 9.0010498 -3.86083984 9.86889648 C-4.4017627 10.75778564 -4.94268555 11.6466748 -5.5 12.5625 C-6.04736816 13.46621338 -6.59473633 14.36992676 -7.15869141 15.30102539 C-17.69356702 32.46237802 -17.69356702 32.46237802 -26 38 C-28.6875 38.5625 -28.6875 38.5625 -31 38 C-35.66843226 33.16483802 -35.20349765 27.79148101 -35.16796875 21.453125 C-34.94324811 16.83328677 -34.13164726 12.47606908 -33 8 C-28.87037429 6.55816757 -24.77959152 5.42791052 -20.5078125 4.4921875 C-19.30898438 4.22792969 -18.11015625 3.96367188 -16.875 3.69140625 C-15.6375 3.42199219 -14.4 3.15257812 -13.125 2.875 C-11.86429688 2.59785156 -10.60359375 2.32070313 -9.3046875 2.03515625 C-6.20374478 1.35388853 -3.10218092 0.67560302 0 0 Z " fill="#076B81" transform="translate(598,510)"/>
<path d="M0 0 C0.66 0.33 1.32 0.66 2 1 C2 1.99 2 2.98 2 4 C15.45022125 6.15119998 28.89019001 6.49125559 42.48535156 6.89111328 C47.82528166 7.05654874 53.16255236 7.26893581 58.5 7.5 C59.4070166 7.53552979 60.3140332 7.57105957 61.24853516 7.60766602 C62.502229 7.66265259 62.502229 7.66265259 63.78125 7.71875 C64.50376953 7.74904297 65.22628906 7.77933594 65.97070312 7.81054688 C68.06306601 8.00588778 69.97780215 8.438152 72 9 C72 8.34 72 7.68 72 7 C74.64 7 77.28 7 80 7 C80 7.66 80 8.32 80 9 C95.51 8.67 111.02 8.34 127 8 C127 8.33 127 8.66 127 9 C142.27600115 9.25166394 157.34331489 8.89705839 172.56518555 7.62353516 C174.30602417 7.48310791 174.30602417 7.48310791 176.08203125 7.33984375 C177.10530518 7.25081787 178.1285791 7.16179199 179.18286133 7.07006836 C181.98671879 7.00033033 184.27000182 7.41184958 187 8 C188.69257245 8.07700286 190.38773999 8.10805067 192.08203125 8.09765625 C193.01337891 8.09443359 193.94472656 8.09121094 194.90429688 8.08789062 C195.86400391 8.07951172 196.82371094 8.07113281 197.8125 8.0625 C198.79154297 8.05798828 199.77058594 8.05347656 200.77929688 8.04882812 C203.18626111 8.03708684 205.59309857 8.02066419 208 8 C208.33 8.66 208.66 9.32 209 10 C176.58492525 11.19173962 144.16573092 11.15514451 111.73422122 11.12856841 C106.59836086 11.12480118 101.46251981 11.12616005 96.32666016 11.13037109 C40.89003273 11.17439515 40.89003273 11.17439515 15.0546875 10.6171875 C14.22200474 10.60204227 13.38932198 10.58689705 12.5314064 10.57129288 C10.25995392 10.52788599 7.98927996 10.47141114 5.71826172 10.40966797 C4.47905975 10.37904266 3.23985779 10.34841736 1.96310425 10.31686401 C-1 10 -1 10 -4 8 C-4 7.34 -4 6.68 -4 6 C-5.32 5.67 -6.64 5.34 -8 5 C-4.535 4.505 -4.535 4.505 -1 4 C-0.67 2.68 -0.34 1.36 0 0 Z " fill="#EFF1F1" transform="translate(379,563)"/>
<path d="M0 0 C0.66 0.33 1.32 0.66 2 1 C0.68 2.32 -0.64 3.64 -2 5 C0.91673302 5.02745878 3.83319718 5.04705551 6.75 5.0625 C7.55566406 5.07087891 8.36132812 5.07925781 9.19140625 5.08789062 C13.69279317 5.10561262 18.11291745 4.93410994 22.59545898 4.51147461 C28.66871248 3.98886017 34.70761301 3.80092741 40.80078125 3.71875 C41.88022507 3.70034058 42.95966888 3.68193115 44.07182312 3.66296387 C47.48533312 3.60488754 50.89888968 3.55182043 54.3125 3.5 C58.80867737 3.43142456 63.30473208 3.35772473 67.80078125 3.28125 C69.30152946 3.26088684 69.30152946 3.26088684 70.83259583 3.2401123 C76.2627737 3.14759315 81.64746158 2.89678141 87.06347656 2.48852539 C96.10582776 1.85453819 105.12280441 1.87417222 114.18359375 1.90234375 C115.97819478 1.90421421 117.77279634 1.90563513 119.56739807 1.90663147 C124.23777738 1.91040731 128.90812444 1.92019402 133.57849121 1.93133545 C138.36547408 1.94165707 143.15246228 1.94615187 147.93945312 1.95117188 C157.29298274 1.96182191 166.64648866 1.97883723 176 2 C176 2.33 176 2.66 176 3 C175.4267247 3.01030746 174.8534494 3.02061493 174.26280212 3.03123474 C168.27641363 3.13972259 162.29016287 3.25428397 156.30395508 3.37231445 C154.07221367 3.41552824 151.84044207 3.45721245 149.60864258 3.49731445 C146.39395061 3.55534656 143.17940864 3.61894498 139.96484375 3.68359375 C138.47693581 3.70866249 138.47693581 3.70866249 136.95896912 3.73423767 C131.88434728 3.84186149 127.02329492 4.20545634 122 5 C118.64658977 5.05322873 115.31282172 5.02514984 111.9609375 4.9609375 C107.53152482 4.90963156 103.37329866 5.34016897 99 6 C97.1884279 6.0616181 95.37494968 6.08732808 93.5625 6.0625 C92.26505859 6.04896484 92.26505859 6.04896484 90.94140625 6.03515625 C90.30074219 6.02355469 89.66007812 6.01195312 89 6 C89 5.34 89 4.68 89 4 C85.41620061 4.30729783 81.83306316 4.62174256 78.25 4.9375 C76.72632813 5.06801758 76.72632813 5.06801758 75.171875 5.20117188 C74.1921875 5.28818359 73.2125 5.37519531 72.203125 5.46484375 C70.85202637 5.58267212 70.85202637 5.58267212 69.47363281 5.70288086 C67.23555884 5.97170597 65.1789097 6.44389238 63 7 C61.18748378 7.0193704 59.3742377 6.99403998 57.5625 6.9375 C49.46970674 6.86833083 41.57378673 7.99788961 33.75 10.0625 C28.82928596 11.29267851 23.69112156 12.5498471 18.6484375 11.51953125 C15.47920243 10.89783765 12.53911758 10.94113354 9.3125 11 C3.22076503 11.11038251 3.22076503 11.11038251 1 10 C0.38125 10.495 -0.2375 10.99 -0.875 11.5 C-3 13 -3 13 -5 13 C-5.875 9.875 -5.875 9.875 -6 6 C-4.25324589 3.52229648 -2.35551697 1.97094277 0 0 Z " fill="#E5E8EA" transform="translate(383,549)"/>
<path d="M0 0 C6.93 0 13.86 0 21 0 C21 6.93 21 13.86 21 21 C14.07 21 7.14 21 0 21 C0 14.07 0 7.14 0 0 Z " fill="#096881" transform="translate(463,373)"/>
<path d="M0 0 C6.93 0 13.86 0 21 0 C21 6.93 21 13.86 21 21 C14.07 21 7.14 21 0 21 C0 14.07 0 7.14 0 0 Z " fill="#086781" transform="translate(437,373)"/>
<path d="M0 0 C6.93 0 13.86 0 21 0 C21 6.93 21 13.86 21 21 C14.07 21 7.14 21 0 21 C0 14.07 0 7.14 0 0 Z " fill="#05657D" transform="translate(463,347)"/>
<path d="M0 0 C6.93 0 13.86 0 21 0 C21 6.93 21 13.86 21 21 C14.07 21 7.14 21 0 21 C0 14.07 0 7.14 0 0 Z " fill="#04667E" transform="translate(437,347)"/>
<path d="M0 0 C14 0 14 0 17.3125 2.4375 C17.869375 3.283125 18.42625 4.12875 19 5 C19.33 5.33 19.66 5.66 20 6 C20.51611006 12.09009877 20.04623402 15.1207178 16 20 C12.57067929 21.71466036 8.78283935 21.05404056 5 21 C5 23.97 5 26.94 5 30 C3.35 30 1.7 30 0 30 C0 20.1 0 10.2 0 0 Z " fill="#465868" transform="translate(638,723)"/>
<path d="M0 0 C1.65 0 3.3 0 5 0 C5 10.23 5 20.46 5 31 C3.35 30.67 1.7 30.34 0 30 C-0.33 30.33 -0.66 30.66 -1 31 C-5.44100541 31.63056872 -8.87307209 31.82458139 -12.5625 29.125 C-14.59909061 24.6976291 -14.80285098 20.79349261 -14 16 C-12.20353146 13.06576805 -11.0558929 11.52794645 -8 10 C-5.3276379 9.86584528 -2.67749512 9.95681459 0 10 C0 6.7 0 3.4 0 0 Z " fill="#4C5F6B" transform="translate(496,713)"/>
<path d="M0 0 C1.65 0 3.3 0 5 0 C7.92649368 5.66522559 10.45412925 11.36589914 12.75 17.3125 C13.06582031 18.10978516 13.38164062 18.90707031 13.70703125 19.72851562 C14.00480469 20.49486328 14.30257813 21.26121094 14.609375 22.05078125 C15.0110791 23.08199097 15.0110791 23.08199097 15.42089844 24.1340332 C16 26 16 26 16 29 C14.35 29 12.7 29 11 29 C10.34 26.69 9.68 24.38 9 22 C4.71 22 0.42 22 -4 22 C-4.33 23.65 -4.66 25.3 -5 27 C-5.33 27.66 -5.66 28.32 -6 29 C-7.65 29 -9.3 29 -11 29 C-8.88355257 22.35831389 -6.4326092 15.89538217 -3.8125 9.4375 C-3.44447266 8.52419922 -3.07644531 7.61089844 -2.69726562 6.66992188 C-1.80056454 4.44563736 -0.90144402 2.22236555 0 0 Z " fill="#546471" transform="translate(341,715)"/>
<path d="M0 0 C3.0220794 1.74450506 5.41651082 3.83302164 7 7 C7.54724071 12.69130337 6.59333707 15.56117185 3 20 C-0.69153519 21.8457676 -4.97021939 21.48175083 -9 21 C-12.09799981 18.80873184 -12.80352112 17.58943664 -14 14 C-14.37066773 8.99598565 -14.09881835 6.01698676 -11 2 C-7.3112362 -0.45917586 -4.2815571 -0.81591937 0 0 Z " fill="#566673" transform="translate(519,723)"/>
<path d="M0 0 C3.62416894 1.64734952 6.12851416 3.45402683 8 7 C8.56920689 11.3910246 8.29015343 13.47772383 6.125 17.375 C3.88621151 20.14056226 3.21146446 20.87125552 -0.2421875 21.23828125 C-7.37869619 21.43945879 -7.37869619 21.43945879 -10.5625 19.1875 C-13.21459402 15.15170476 -13.32667307 11.73675955 -13 7 C-10.07206868 0.72586146 -6.78388043 -0.58481728 0 0 Z " fill="#536370" transform="translate(420,723)"/>
<path d="M0 0 C2.8100346 1.79363911 4.50940468 3.01880935 6 6 C6.16796875 8.0234375 6.16796875 8.0234375 6.1875 10.375 C6.20167969 11.14585937 6.21585938 11.91671875 6.23046875 12.7109375 C5.97105568 15.28748088 5.39340154 16.82425673 4 19 C-0.22583705 21.8172247 -4.03570016 21.67547031 -9 21 C-12.09799981 18.80873184 -12.80352112 17.58943664 -14 14 C-14.57279236 6.8973747 -14.57279236 6.8973747 -12.125 3.0625 C-8.49059499 -0.46501074 -4.90782663 -0.7051475 0 0 Z " fill="#516371" transform="translate(543,723)"/>
<path d="M0 0 C3.11818474 2.00949683 4.89168735 3.63577138 6.8125 6.8125 C6.8125 8.7925 6.8125 10.7725 6.8125 12.8125 C-2.0975 12.8125 -11.0075 12.8125 -20.1875 12.8125 C-19.11622151 6.38482904 -17.56322581 3.28803226 -12.3125 -0.5625 C-7.90416955 -1.85906778 -4.27897212 -1.59412687 0 0 Z " fill="#FDF9F5" transform="translate(698.1875,632.1875)"/>
<path d="M0 0 C2.8100346 1.79363911 4.50940468 3.01880935 6 6 C6 7.98 6 9.96 6 12 C1.05 12 -3.9 12 -9 12 C-8.34 13.32 -7.68 14.64 -7 16 C-3.04 16 0.92 16 5 16 C5 17.32 5 18.64 5 20 C1.02292857 21.98853571 -3.67462935 21.51729937 -8 21 C-11.1875 19.1875 -11.1875 19.1875 -13 16 C-13.95977207 10.62043723 -13.93789429 6.49476903 -11 1.8125 C-7.17140373 -0.50061025 -4.36617599 -0.97908189 0 0 Z " fill="#51606D" transform="translate(628,723)"/>
<path d="M0 0 C1.79460103 0.00187046 3.58920259 0.00329138 5.38380432 0.00428772 C10.05418363 0.00806356 14.72453069 0.01785027 19.39489746 0.0289917 C24.18188033 0.03931332 28.96886853 0.04380812 33.75585938 0.04882812 C43.10938899 0.05947816 52.46289491 0.07649348 61.81640625 0.09765625 C61.81640625 0.42765625 61.81640625 0.75765625 61.81640625 1.09765625 C61.24313095 1.10796371 60.66985565 1.11827118 60.07920837 1.12889099 C54.09281988 1.23737884 48.10656912 1.35194022 42.12036133 1.4699707 C39.88861992 1.51318449 37.65684832 1.5548687 35.42504883 1.5949707 C32.21035686 1.65300281 28.99581489 1.71660123 25.78125 1.78125 C24.29334206 1.80631874 24.29334206 1.80631874 22.77537537 1.83189392 C17.70075353 1.93951774 12.83970117 2.30311259 7.81640625 3.09765625 C4.46299602 3.15088498 1.12922797 3.12280609 -2.22265625 3.05859375 C-6.65206893 3.00728781 -10.81029509 3.43782522 -15.18359375 4.09765625 C-16.99516585 4.15927435 -18.80864407 4.18498433 -20.62109375 4.16015625 C-21.91853516 4.14662109 -21.91853516 4.14662109 -23.2421875 4.1328125 C-23.88285156 4.12121094 -24.52351563 4.10960937 -25.18359375 4.09765625 C-25.18359375 3.43765625 -25.18359375 2.77765625 -25.18359375 2.09765625 C-28.76739314 2.40495408 -32.35053059 2.71939881 -35.93359375 3.03515625 C-37.45726562 3.16567383 -37.45726562 3.16567383 -39.01171875 3.29882812 C-39.99140625 3.38583984 -40.97109375 3.47285156 -41.98046875 3.5625 C-42.88120117 3.64105225 -43.78193359 3.71960449 -44.70996094 3.80053711 C-47.10347275 4.01568415 -47.10347275 4.01568415 -49.01953125 4.65234375 C-52.35461252 5.33862401 -55.63968796 4.98590057 -59.01171875 4.7578125 C-60.13522736 4.68910194 -60.13522736 4.68910194 -61.28143311 4.6190033 C-63.66588989 4.47184475 -66.04969823 4.31611877 -68.43359375 4.16015625 C-70.05335005 4.05867871 -71.67314152 3.95776081 -73.29296875 3.85742188 C-77.25694723 3.61065083 -81.22036619 3.35619641 -85.18359375 3.09765625 C-85.18359375 2.76765625 -85.18359375 2.43765625 -85.18359375 2.09765625 C-84.57797104 2.08734879 -83.97234833 2.07704132 -83.34837341 2.06642151 C-76.97150431 1.9571579 -70.59474314 1.84267808 -64.21801758 1.7253418 C-61.84694709 1.68237188 -59.47585313 1.64067531 -57.10473633 1.6003418 C-53.67131512 1.54170652 -50.23800804 1.47829534 -46.8046875 1.4140625 C-45.24747231 1.38899376 -45.24747231 1.38899376 -43.65879822 1.36341858 C-38.11819276 1.25506889 -32.62010998 1.00055372 -27.09375 0.58398438 C-18.06038394 -0.04901288 -9.05175898 -0.02814345 0 0 Z " fill="#EEF0F0" transform="translate(497.18359375,550.90234375)"/>
<path d="M0 0 C1.8046875 0.6015625 1.8046875 0.6015625 3.8046875 2.2265625 C5.21687998 5.58051963 5.25488002 8.00002238 4.8046875 11.6015625 C3.3046875 14.0390625 3.3046875 14.0390625 0.8046875 15.6015625 C-4.19145769 16.31529753 -6.05761196 16.36776899 -10.2578125 13.5390625 C-12.1953125 10.6015625 -12.1953125 10.6015625 -12.3203125 7.0390625 C-10.18003381 0.49932205 -6.48039805 -1.24717095 0 0 Z " fill="#0BA6A3" transform="translate(441.1953125,593.3984375)"/>
<path d="M0 0 C1.71096371 6.15946934 2.32729001 12.14151066 2.6875 18.5 C2.75988892 19.72082275 2.75988892 19.72082275 2.83374023 20.96630859 C2.93398187 22.9758038 2.97252785 24.98819369 3 27 C2 28 2 28 -0.375 28.3125 C-3 28 -3 28 -4.75 26.1875 C-8.40123371 19.797841 -7.97590248 10.74553693 -6.125 3.75 C-4.60877095 0.04366232 -3.95315931 0 0 0 Z " fill="#095266" transform="translate(570,520)"/>
<path d="M0 0 C1.98 0 3.96 0 6 0 C6.27714844 0.71027344 6.55429687 1.42054688 6.83984375 2.15234375 C7.20207031 3.07144531 7.56429688 3.99054687 7.9375 4.9375 C8.29714844 5.85402344 8.65679687 6.77054688 9.02734375 7.71484375 C9.7996218 9.92418533 9.7996218 9.92418533 11 11 C11.23074219 10.28972656 11.46148437 9.57945312 11.69921875 8.84765625 C12.02535156 7.92855469 12.35148437 7.00945313 12.6875 6.0625 C13.00074219 5.14597656 13.31398438 4.22945312 13.63671875 3.28515625 C15 1 15 1 17.64453125 0.18359375 C18.42183594 0.12300781 19.19914062 0.06242188 20 0 C18.98403587 5.95295695 16.59873985 11.21756364 14.25 16.75 C13.81945312 17.81605469 13.38890625 18.88210938 12.9453125 19.98046875 C12.51476562 20.99238281 12.08421875 22.00429688 11.640625 23.046875 C11.25422852 23.97338867 10.86783203 24.89990234 10.46972656 25.85449219 C9 28 9 28 6.33496094 28.80957031 C5.17915527 28.90383301 5.17915527 28.90383301 4 29 C4.309375 28.13375 4.61875 27.2675 4.9375 26.375 C7.29353953 18.89110973 6.71955016 15.14066702 3.5625 8.125 C3.22412109 7.34125 2.88574219 6.5575 2.53710938 5.75 C1.70479879 3.82747978 0.85419934 1.91289528 0 0 Z " fill="#52626E" transform="translate(385,724)"/>
<path d="M0 0 C1.32 0 2.64 0 4 0 C4.33 4.95 4.66 9.9 5 15 C7.64 15 10.28 15 13 15 C13 10.05 13 5.1 13 0 C14.65 0 16.3 0 18 0 C18 6.6 18 13.2 18 20 C14.3803125 20.0928125 14.3803125 20.0928125 10.6875 20.1875 C9.93170654 20.21481201 9.17591309 20.24212402 8.3972168 20.27026367 C3.44648641 20.33192403 3.44648641 20.33192403 1.29492188 18.73242188 C-0.27988497 16.62555359 -0.35170636 15.59231522 -0.29296875 12.98828125 C-0.28330078 12.23095703 -0.27363281 11.47363281 -0.26367188 10.69335938 C-0.23853516 9.90767578 -0.21339844 9.12199219 -0.1875 8.3125 C-0.17396484 7.51521484 -0.16042969 6.71792969 -0.14648438 5.89648438 C-0.11117089 3.93070033 -0.05736447 1.96526418 0 0 Z " fill="#637380" transform="translate(432,724)"/>
<path d="M0 0 C0.66 0.33 1.32 0.66 2 1 C1.01 2.485 1.01 2.485 0 4 C24.255 4.495 24.255 4.495 49 5 C50.16881179 8.50643538 50.11998427 11.24901468 50.11352539 14.94995117 C50.11367142 15.65264633 50.11381744 16.35534149 50.1139679 17.07933044 C50.11327157 19.40057468 50.10549226 21.72173854 50.09765625 24.04296875 C50.09579108 25.6529384 50.09436764 27.26290861 50.09336853 28.87287903 C50.08955118 33.10942147 50.07972755 37.3459296 50.06866455 41.5824585 C50.05843364 45.90587907 50.05386731 50.22930519 50.04882812 54.55273438 C50.03810459 63.03517199 50.02103753 71.51758173 50 80 C49.01 80.495 49.01 80.495 48 81 C48 56.25 48 31.5 48 6 C30.18 6 12.36 6 -6 6 C-6 5.34 -6 4.68 -6 4 C-4.03852126 2.61061923 -2.03833424 1.2739589 0 0 Z " fill="#318496" transform="translate(279,347)"/>
<path d="M0 0 C0.66 0.33 1.32 0.66 2 1 C1.51322375 1.56629749 1.02644751 2.13259499 0.52492046 2.71605301 C-1.19289471 5.28890771 -1.38082944 6.49333577 -1.39872742 9.54315186 C-1.41753464 10.90187157 -1.41753464 10.90187157 -1.4367218 12.28804016 C-1.43456917 13.76726204 -1.43456917 13.76726204 -1.43237305 15.27636719 C-1.44766052 16.84269142 -1.44766052 16.84269142 -1.46325684 18.44065857 C-1.49345544 21.89278481 -1.50266348 25.34463387 -1.51171875 28.796875 C-1.5285603 31.19013394 -1.54670982 33.58338401 -1.56611633 35.97662354 C-1.61367909 42.27631864 -1.64344801 48.57597777 -1.66955566 54.87579346 C-1.69932941 61.30398667 -1.7458707 67.73205586 -1.79101562 74.16015625 C-1.87712022 86.77337013 -1.9450031 99.38661409 -2 112 C-2.66 111.67 -3.32 111.34 -4 111 C-4.02319379 97.96940488 -4.04095097 84.9388147 -4.05181217 71.90820312 C-4.0570256 65.85725168 -4.06409528 59.80631439 -4.07543945 53.75537109 C-4.08632307 47.91337953 -4.09228845 42.07140156 -4.09487724 36.22940063 C-4.09672162 34.00314114 -4.10032322 31.77688236 -4.10573006 29.55062866 C-4.11301312 26.42696539 -4.11398788 23.30335793 -4.11352539 20.1796875 C-4.11712067 19.26402512 -4.12071594 18.34836273 -4.12442017 17.404953 C-4.11608594 12.18598957 -4.00097511 7.13249194 -3 2 C-2.01 1.34 -1.02 0.68 0 0 Z " fill="#71B2BB" transform="translate(348,318)"/>
<path d="M0 0 C1.32 0 2.64 0 4 0 C4 1.98 4 3.96 4 6 C5.98 6 7.96 6 10 6 C10 7.32 10 8.64 10 10 C8.02 10 6.04 10 4 10 C4 14.29 4 18.58 4 23 C5.98 23 7.96 23 10 23 C10 24.32 10 25.64 10 27 C8.54207116 27.05399736 7.08357288 27.09279177 5.625 27.125 C4.40683594 27.15980469 4.40683594 27.15980469 3.1640625 27.1953125 C1 27 1 27 -1 25 C-1.14497985 22.41935871 -1.18677545 19.95056116 -1.125 17.375 C-1.11597656 16.66859375 -1.10695313 15.9621875 -1.09765625 15.234375 C-1.07407603 13.48943902 -1.03820461 11.74467705 -1 10 C-1.99 10 -2.98 10 -4 10 C-4 9.01 -4 8.02 -4 7 C-3.01 7 -2.02 7 -1 7 C-1.020625 6.030625 -1.04125 5.06125 -1.0625 4.0625 C-1 1 -1 1 0 0 Z " fill="#62717C" transform="translate(362,717)"/>
<path d="M0 0 C0.33 1.32 0.66 2.64 1 4 C-1.64 4.33 -4.28 4.66 -7 5 C-7 5.66 -7 6.32 -7 7 C-6.44570313 7.18175781 -5.89140625 7.36351562 -5.3203125 7.55078125 C-4.59585938 7.80214844 -3.87140625 8.05351563 -3.125 8.3125 C-2.04605469 8.67794922 -2.04605469 8.67794922 -0.9453125 9.05078125 C1 10 1 10 3 13 C3.375 15.5 3.375 15.5 3 18 C0.80087136 20.13325612 -0.51084072 20.94441372 -3.578125 21.29296875 C-4.45984375 21.25816406 -5.3415625 21.22335937 -6.25 21.1875 C-7.14203125 21.16042969 -8.0340625 21.13335938 -8.953125 21.10546875 C-9.62859375 21.07066406 -10.3040625 21.03585937 -11 21 C-11.33 19.68 -11.66 18.36 -12 17 C-9.03 17 -6.06 17 -3 17 C-3 16.01 -3 15.02 -3 14 C-3.63808594 13.78085937 -4.27617188 13.56171875 -4.93359375 13.3359375 C-7.43665387 12.37532473 -9.71030526 11.39782863 -12 10 C-13.3125 7 -13.3125 7 -13 4 C-9.98150669 -1.21376117 -5.35397373 -0.41184413 0 0 Z " fill="#566572" transform="translate(593,723)"/>
<path d="M0 0 C1.32 0 2.64 0 4 0 C4 1.98 4 3.96 4 6 C5.98 6 7.96 6 10 6 C10 7.32 10 8.64 10 10 C8.02 10 6.04 10 4 10 C4 14.29 4 18.58 4 23 C5.98 23 7.96 23 10 23 C10 24.32 10 25.64 10 27 C8.54257537 27.08096803 7.08387193 27.13917774 5.625 27.1875 C4.81289063 27.22230469 4.00078125 27.25710938 3.1640625 27.29296875 C2.44992187 27.19628906 1.73578125 27.09960938 1 27 C-1.49118953 23.2632157 -1.2065226 21.25548181 -1.125 16.8125 C-1.10695313 15.54019531 -1.08890625 14.26789062 -1.0703125 12.95703125 C-1.04710937 11.98121094 -1.02390625 11.00539063 -1 10 C-1.99 10 -2.98 10 -4 10 C-4 9.01 -4 8.02 -4 7 C-2.68 7 -1.36 7 0 7 C0 4.69 0 2.38 0 0 Z " fill="#495B69" transform="translate(602,717)"/>
<path d="M0 0 C1.32 0 2.64 0 4 0 C4 9.9 4 19.8 4 30 C-5 28.875 -5 28.875 -8 27 C-5.36 26.34 -2.72 25.68 0 25 C0 21.04 0 17.08 0 13 C-0.66 13 -1.32 13 -2 13 C-2.33 12.01 -2.66 11.02 -3 10 C-2.01 10 -1.02 10 0 10 C0 6.7 0 3.4 0 0 Z " fill="#475965" transform="translate(497,714)"/>
<path d="M0 0 C-1.32 0.99 -2.64 1.98 -4 3 C-2.35 3 -0.7 3 1 3 C-7.22783013 11.22783013 -31.09560917 9.84401811 -42 11 C-41.67 10.34 -41.34 9.68 -41 9 C-38.580171 8.32441322 -36.20544489 7.76290172 -33.75 7.25 C-25.67337544 5.47945657 -17.77446495 3.26647454 -9.87011719 0.84277344 C-9.01836914 0.58915039 -8.16662109 0.33552734 -7.2890625 0.07421875 C-6.53318848 -0.15692627 -5.77731445 -0.38807129 -4.99853516 -0.6262207 C-3 -1 -3 -1 0 0 Z " fill="#DE5B36" transform="translate(542,518)"/>
<path d="M0 0 C4 0 8 0 12 0 C12 1.32 12 2.64 12 4 C10.7934375 4.4640625 10.7934375 4.4640625 9.5625 4.9375 C7.10919595 5.76335345 7.10919595 5.76335345 6 7 C5.76472227 9.34987262 5.58613583 11.70556039 5.4375 14.0625 C5.35371094 15.35285156 5.26992188 16.64320313 5.18359375 17.97265625 C5.12300781 18.97167969 5.06242187 19.97070312 5 21 C3.35 21 1.7 21 0 21 C0 14.07 0 7.14 0 0 Z " fill="#74808B" transform="translate(455,723)"/>
<path d="M0 0 C3.0996593 -0.39570119 5.12198451 -0.49754211 7.875 1.0625 C9.64796631 4.11594197 9.36343372 6.54737962 9 10 C7.8125 12.4375 7.8125 12.4375 6 14 C3.1819827 14.49315303 1.69461993 14.38323858 -0.8125 13 C-2.6712883 9.86940917 -2.55145843 6.55225172 -2 3 C-1.34 2.01 -0.68 1.02 0 0 Z " fill="#F1F2F3" transform="translate(536,727)"/>
<path d="M0 0 C3.0625 0.3125 3.0625 0.3125 4.9375 1.375 C6.73080867 4.46347604 6.49091969 6.82393969 6.0625 10.3125 C4.375 12.8125 4.375 12.8125 2.0625 14.3125 C-1.32904295 14.15099795 -2.52046757 13.72953243 -4.9375 11.3125 C-5.203125 9.21875 -5.203125 9.21875 -5.1875 6.8125 C-5.19265625 6.0184375 -5.1978125 5.224375 -5.203125 4.40625 C-4.75316487 0.85950548 -3.40966399 0.36273021 0 0 Z " fill="#F2F3F4" transform="translate(416.9375,726.6875)"/>
<path d="M0 0 C3.70606462 3.21869173 4.00005523 6.30795149 5 11 C2.69 11.33 0.38 11.66 -2 12 C-2 12.33 -2 12.66 -2 13 C0.64 13.33 3.28 13.66 6 14 C6 14.33 6 14.66 6 15 C2.04 15 -1.92 15 -6 15 C-6.33 16.65 -6.66 18.3 -7 20 C-7.33 20.66 -7.66 21.32 -8 22 C-9.65 22 -11.3 22 -13 22 C-12.54738642 20.56068883 -12.08767021 19.12361001 -11.625 17.6875 C-11.36976563 16.88699219 -11.11453125 16.08648438 -10.8515625 15.26171875 C-10 13 -10 13 -8 10 C-7.34515625 9.86722656 -6.6903125 9.73445312 -6.015625 9.59765625 C-3.79580793 9.18399337 -3.79580793 9.18399337 -2.734375 6.93359375 C-2.40953125 6.10988281 -2.0846875 5.28617188 -1.75 4.4375 C-1.24726563 3.19806641 -1.24726563 3.19806641 -0.734375 1.93359375 C-0.49203125 1.29550781 -0.2496875 0.65742187 0 0 Z " fill="#657683" transform="translate(343,722)"/>
<path d="M0 0 C1.8125 1.0625 1.8125 1.0625 3 3 C3.39995291 6.66623504 3.43899865 9.0988975 1.8125 12.4375 C0 14 0 14 -2.5 14.5 C-5 14 -5 14 -6.8125 12.4375 C-8.43899865 9.0988975 -8.39995291 6.66623504 -8 3 C-5.95177941 -0.34183359 -3.7548828 -0.56323242 0 0 Z " fill="#F5F6F7" transform="translate(518,727)"/>
<path d="M0 0 C0.66 0.33 1.32 0.66 2 1 C2 1.99 2 2.98 2 4 C16.59247345 6.33388939 31.2499326 6.61756781 46 7 C46 7.33 46 7.66 46 8 C40.33431663 8.97058832 34.87005197 9.13123058 29.12890625 9.09765625 C27.74541237 9.09553383 27.74541237 9.09553383 26.33396912 9.09336853 C23.41011202 9.08780506 20.48633365 9.07525942 17.5625 9.0625 C15.57096465 9.05748028 13.5794281 9.0529182 11.58789062 9.04882812 C6.72523044 9.03784762 1.86262853 9.02060839 -3 9 C-3.33 8.01 -3.66 7.02 -4 6 C-6.01508358 5.26676204 -6.01508358 5.26676204 -8 5 C-4.535 4.505 -4.535 4.505 -1 4 C-0.67 2.68 -0.34 1.36 0 0 Z " fill="#E1E5E6" transform="translate(379,563)"/>
<path d="M0 0 C2.47342266 3.71013399 2.38503486 5.61060262 2 10 C0.875 12.4375 0.875 12.4375 -1 14 C-4.125 14.3125 -4.125 14.3125 -7 14 C-8 13 -8 13 -8.09765625 10.27734375 C-8.08605469 9.17519531 -8.07445312 8.07304688 -8.0625 6.9375 C-8.05347656 5.83277344 -8.04445313 4.72804688 -8.03515625 3.58984375 C-8.02355469 2.73519531 -8.01195312 1.88054688 -8 1 C-5.21136993 -0.39431504 -3.07921132 -0.25660094 0 0 Z " fill="#F1F3F4" transform="translate(651,727)"/>
<path d="M0 0 C2.01822917 0.06510417 4.03645833 0.13020833 6.0546875 0.1953125 C6.0546875 4.1553125 6.0546875 8.1153125 6.0546875 12.1953125 C3.07255837 13.68637707 0.33859092 13.31472717 -2.9453125 13.1953125 C-4.61092649 11.52969851 -4.11647195 9.53568545 -4.1328125 7.2578125 C-4.14699219 6.36191406 -4.16117187 5.46601562 -4.17578125 4.54296875 C-3.8804008 1.53409336 -3.10782535 0.31203066 0 0 Z " fill="#F2F3F4" transform="translate(490.9453125,726.8046875)"/>
<path d="M0 0 C14 0 14 0 17.375 2.5 C17.91125 3.325 18.4475 4.15 19 5 C18.34 6.65 17.68 8.3 17 10 C15.29159719 8.36587557 14.06546953 7.13093906 13 5 C10.36 5 7.72 5 5 5 C5 8.63 5 12.26 5 16 C4.67 16 4.34 16 4 16 C3.67 13.03 3.34 10.06 3 7 C2.67 7 2.34 7 2 7 C2.020625 6.195625 2.04125 5.39125 2.0625 4.5625 C2.29633621 2.06645115 2.29633621 2.06645115 1 1 C1 10.57 1 20.14 1 30 C0.67 30 0.34 30 0 30 C0 20.1 0 10.2 0 0 Z " fill="#6A7882" transform="translate(638,723)"/>
<path d="M0 0 C2.64 0 5.28 0 8 0 C8 0.66 8 1.32 8 2 C23.51 1.67 39.02 1.34 55 1 C54.67 1.66 54.34 2.32 54 3 C44.2808125 3.02326439 34.56163471 3.04098651 24.84242535 3.05181217 C20.32845253 3.05701033 15.81449889 3.0640517 11.30053711 3.07543945 C6.93685024 3.08637805 2.57318172 3.09229989 -1.79051781 3.09487724 C-3.44770788 3.09671185 -5.10489706 3.10029399 -6.76207924 3.10573006 C-15.55410333 3.13339949 -24.25548481 3.05539702 -33 2 C-33 1.67 -33 1.34 -33 1 C-28.94320623 0.97522627 -24.88644194 0.95710507 -20.82958984 0.94506836 C-19.45035027 0.94004882 -18.07111598 0.93323181 -16.69189453 0.92456055 C-14.70607817 0.9123908 -12.72022251 0.90728367 -10.734375 0.90234375 C-9.54038086 0.89710693 -8.34638672 0.89187012 -7.11621094 0.88647461 C-4.53305383 0.98058054 -2.44991581 1.23373845 0 2 C0 1.34 0 0.68 0 0 Z " fill="#E6E9EB" transform="translate(451,570)"/>
<path d="M0 0 C1.32 0 2.64 0 4 0 C4 0.66 4 1.32 4 2 C4.99 1.34 5.98 0.68 7 0 C9.6875 -0.125 9.6875 -0.125 12 0 C12 1.32 12 2.64 12 4 C11.030625 4.309375 10.06125 4.61875 9.0625 4.9375 C6.15934208 5.69523342 6.15934208 5.69523342 5 7 C4.76472227 9.34987262 4.58613583 11.70556039 4.4375 14.0625 C4.35371094 15.35285156 4.26992188 16.64320313 4.18359375 17.97265625 C4.12300781 18.97167969 4.06242188 19.97070312 4 21 C2.68 21 1.36 21 0 21 C0 14.07 0 7.14 0 0 Z " fill="#566672" transform="translate(554,723)"/>
<path d="M0 0 C3.09468195 0.09582804 4.33539717 0.45202977 7.1875 1.9375 C9.1875 4.375 9.1875 4.375 9.1875 11.375 C4.5675 11.375 -0.0525 11.375 -4.8125 11.375 C-4.4825 10.715 -4.1525 10.055 -3.8125 9.375 C-0.8425 9.375 2.1275 9.375 5.1875 9.375 C4.5275 8.055 3.8675 6.735 3.1875 5.375 C-0.75977588 5.19557837 -3.4105513 5.28149311 -6.8125 7.375 C-6.00229451 2.24369854 -5.56256421 0.54713746 0 0 Z " fill="#445563" transform="translate(623.8125,722.625)"/>
<path d="M0 0 C0.66 0.33 1.32 0.66 2 1 C0.68 2.32 -0.64 3.64 -2 5 C7.9 5 17.8 5 28 5 C24.49708968 6.75145516 23.11538292 7.27181329 19.4453125 7.52734375 C18.58292969 7.59759766 17.72054688 7.66785156 16.83203125 7.74023438 C15.03539507 7.87115808 13.238516 7.99879256 11.44140625 8.12304688 C6.27356147 8.55049156 2.55998816 9.32954822 -2 12 C-2.99 12.33 -3.98 12.66 -5 13 C-5.875 9.875 -5.875 9.875 -6 6 C-4.25324589 3.52229648 -2.35551697 1.97094277 0 0 Z " fill="#EAEEF0" transform="translate(383,549)"/>
<path d="M0 0 C1.32 0 2.64 0 4 0 C4.00257813 1.04800781 4.00515625 2.09601562 4.0078125 3.17578125 C4.04533492 4.55473027 4.08448241 5.93363574 4.125 7.3125 C4.12242187 8.00279297 4.11984375 8.69308594 4.1171875 9.40429688 C4.14483876 11.70700692 4.14483876 11.70700692 5 15 C7.91718568 17.0645852 7.91718568 17.0645852 11 18 C11 18.66 11 19.32 11 20 C3.47017427 20.3703193 3.47017427 20.3703193 1.390625 18.73242188 C-0.30191723 16.62387558 -0.35318217 15.65774276 -0.29296875 12.98828125 C-0.28330078 12.23095703 -0.27363281 11.47363281 -0.26367188 10.69335938 C-0.23853516 9.90767578 -0.21339844 9.12199219 -0.1875 8.3125 C-0.17396484 7.51521484 -0.16042969 6.71792969 -0.14648438 5.89648438 C-0.11117089 3.93070033 -0.05736447 1.96526418 0 0 Z " fill="#445665" transform="translate(432,724)"/>
<path d="M0 0 C0.33 0 0.66 0 1 0 C1.33 1.65 1.66 3.3 2 5 C2.66 3.35 3.32 1.7 4 0 C4.33 0 4.66 0 5 0 C5 4.29 5 8.58 5 13 C6.98 13 8.96 13 11 13 C11 14.32 11 15.64 11 17 C9.54257537 17.08096803 8.08387193 17.13917774 6.625 17.1875 C5.81289063 17.22230469 5.00078125 17.25710938 4.1640625 17.29296875 C3.44992187 17.19628906 2.73578125 17.09960938 2 17 C-0.49118953 13.2632157 -0.2065226 11.25548181 -0.125 6.8125 C-0.10695313 5.54019531 -0.08890625 4.26789062 -0.0703125 2.95703125 C-0.04710937 1.98121094 -0.02390625 1.00539063 0 0 Z " fill="#63727C" transform="translate(601,727)"/>
<path d="M0 0 C-3.82161656 1.51473306 -7.64449757 3.02622693 -11.46850586 4.53491211 C-12.76539463 5.04707463 -14.06195305 5.56007456 -15.3581543 6.07397461 C-36.10621804 14.29792732 -36.10621804 14.29792732 -40 13 C-35.71 11.35 -31.42 9.7 -27 8 C-27 7.01 -27 6.02 -27 5 C-23.06588927 3.9657865 -19.127265 2.94994103 -15.1875 1.9375 C-14.06794922 1.64294922 -12.94839844 1.34839844 -11.79492188 1.04492188 C-10.18520508 0.6340332 -10.18520508 0.6340332 -8.54296875 0.21484375 C-7.55321045 -0.04176025 -6.56345215 -0.29836426 -5.54370117 -0.56274414 C-3 -1 -3 -1 0 0 Z " fill="#1388A2" transform="translate(575,492)"/>
<path d="M0 0 C3.03965634 1.8108591 4.60422231 2.90400023 5.8125 6.25 C5.874375 6.8275 5.93625 7.405 6 8 C4.02 8.99 4.02 8.99 2 10 C1.62875 9.175 1.2575 8.35 0.875 7.5 C-0.79376052 4.661178 -0.79376052 4.661178 -4.0625 4.5625 C-7.11625538 4.71943701 -7.11625538 4.71943701 -9 7 C-11.125 6.625 -11.125 6.625 -13 6 C-10.39700591 -0.00690945 -6.21884989 -0.99404618 0 0 Z " fill="#556673" transform="translate(543,723)"/>
<path d="M0 0 C0.33 0 0.66 0 1 0 C1.12375 1.11375 1.2475 2.2275 1.375 3.375 C1.6465813 7.03103677 1.6465813 7.03103677 4 9 C7.9795702 8.64626043 11.35688886 7.60725491 15 6 C14.43363977 9.28488934 13.63053433 10.92816323 11 13 C7.62831841 13.62480243 4.38408575 13.52616718 1 13 C-1.625 11 -1.625 11 -3 9 C-2.01 6.03 -1.02 3.06 0 0 Z " fill="#546572" transform="translate(411,731)"/>
<path d="M0 0 C0.66 0 1.32 0 2 0 C2.07476562 0.68707031 2.14953125 1.37414062 2.2265625 2.08203125 C2.62976899 4.84518161 3.08178255 7.36012483 4 10 C6.93662672 12.22325679 6.93662672 12.22325679 10 13 C10 13.66 10 14.32 10 15 C2.83116883 15.47792208 2.83116883 15.47792208 -0.5 13.5625 C-2.67076045 9.85411756 -2.69878984 6.20898999 -2 2 C-1.34 1.34 -0.68 0.68 0 0 Z " fill="#4D5F6D" transform="translate(508,729)"/>
<path d="M0 0 C0.66 0.33 1.32 0.66 2 1 C1.01 2.485 1.01 2.485 0 4 C15.84 4.33 31.68 4.66 48 5 C48 5.33 48 5.66 48 6 C30.18 6 12.36 6 -6 6 C-6 5.34 -6 4.68 -6 4 C-4.03852126 2.61061923 -2.03833424 1.2739589 0 0 Z " fill="#7DB3BD" transform="translate(279,347)"/>
<path d="M0 0 C0.66 0 1.32 0 2 0 C2.32385526 4.6959013 2.41084636 7.16309076 0.3125 11.4375 C-2 14 -2 14 -4.5625 15 C-7 15 -7 15 -10 13 C-8.68 13 -7.36 13 -6 13 C-5.01 9.7 -4.02 6.4 -3 3 C-2.34 3 -1.68 3 -1 3 C-0.67 2.01 -0.34 1.02 0 0 Z " fill="#556675" transform="translate(656,729)"/>
<path d="M0 0 C0.33 0 0.66 0 1 0 C2.09751783 6.99001647 3.17321655 13.97234063 4 21 C3.34 21 2.68 21 2 21 C2.33 22.65 2.66 24.3 3 26 C2.34 25.67 1.68 25.34 1 25 C-1.33917222 17.20275925 -2.6164706 7.84941181 0 0 Z " fill="#1A657D" transform="translate(275,419)"/>
<path d="M0 0 C-1.32 0.99 -2.64 1.98 -4 3 C-2.35 3 -0.7 3 1 3 C-2.46773321 6.46773321 -7.58572836 6.87272374 -12.37109375 7.125 C-14.24785842 7.125 -16.12447494 7.06820091 -18 7 C-16.6100869 4.22017379 -14.81341647 4.12536659 -12 3 C-11.67 2.34 -11.34 1.68 -11 1 C-9.2578125 0.33203125 -9.2578125 0.33203125 -7.125 -0.1875 C-6.07699219 -0.45626953 -6.07699219 -0.45626953 -5.0078125 -0.73046875 C-3 -1 -3 -1 0 0 Z " fill="#D74218" transform="translate(542,518)"/>
<path d="M0 0 C0.33 0 0.66 0 1 0 C1.05851976 4.16660676 1.0937706 8.33310637 1.125 12.5 C1.14175781 13.67304688 1.15851562 14.84609375 1.17578125 16.0546875 C1.21148985 22.41081848 0.90984993 27.92457188 -1 34 C-3.30163882 30.54754176 -3.34490322 29.05261287 -3 25 C-2.34 24.34 -1.68 23.68 -1 23 C-0.79376466 20.20967138 -0.79376466 20.20967138 -0.9375 17 C-1.03344826 11.24950086 -0.72075452 5.70168305 0 0 Z " fill="#1F5656" transform="translate(570,336)"/>
<path d="M0 0 C1.32 0 2.64 0 4 0 C3.39056096 3.55506106 2.65398508 6.77908169 1 10 C-1.0625 11.1875 -1.0625 11.1875 -3 12 C-3.33 12.66 -3.66 13.32 -4 14 C-4.66 13.67 -5.32 13.34 -6 13 C-5.1905146 11.01959844 -4.37732831 9.04070923 -3.5625 7.0625 C-3.11003906 5.96035156 -2.65757812 4.85820313 -2.19140625 3.72265625 C-1 1 -1 1 0 0 Z " fill="#5E6E79" transform="translate(401,724)"/>
<path d="M0 0 C3.80984844 2.77079887 4.06840752 6.62868145 5 11 C2.36 11 -0.28 11 -3 11 C-2.53199289 6.94393835 -2.12046792 3.53411321 0 0 Z " fill="#E6E8EA" transform="translate(343,722)"/>
<path d="M0 0 C3.39746 3.39746 5.09057999 5.6274709 7.25 9.75 C7.77078125 10.73484375 8.2915625 11.7196875 8.828125 12.734375 C9.21484375 13.48203125 9.6015625 14.2296875 10 15 C6.24623848 13.74874616 5.75926711 12.4347596 4 9 C4 8.34 4 7.68 4 7 C3.34 7 2.68 7 2 7 C2 9.97 2 12.94 2 16 C1.34 16.33 0.68 16.66 0 17 C0 11.39 0 5.78 0 0 Z " fill="#E0652D" transform="translate(613,302)"/>
<path d="M0 0 C0.33 0 0.66 0 1 0 C1 4.29 1 8.58 1 13 C2.98 13 4.96 13 7 13 C7 14.32 7 15.64 7 17 C4.03 17 1.06 17 -2 17 C-1.34 11.39 -0.68 5.78 0 0 Z " fill="#6B7984" transform="translate(365,727)"/>
<path d="M0 0 C0.66 0.33 1.32 0.66 2 1 C-2 5 -6 9 -10 13 C-10.33 12.01 -10.66 11.02 -11 10 C-11.66 9.67 -12.32 9.34 -13 9 C-11.39612733 7.8745809 -9.79189084 6.74968028 -8.1875 5.625 C-7.29417969 4.99851562 -6.40085937 4.37203125 -5.48046875 3.7265625 C-3.66732122 2.46449761 -1.83811789 1.22541192 0 0 Z " fill="#18748B" transform="translate(289,375)"/>
<path d="M0 0 C0.99 0.33 1.98 0.66 3 1 C2.34 1 1.68 1 1 1 C1 2.65 1 4.3 1 6 C1.66 6 2.32 6 3 6 C3 10.29 3 14.58 3 19 C2.01 19 1.02 19 0 19 C0 12.73 0 6.46 0 0 Z " fill="#475866" transform="translate(456,724)"/>
<path d="M0 0 C9.57 0 19.14 0 29 0 C29 0.33 29 0.66 29 1 C18.91486516 2.55339755 10.06442949 3.52095536 0 1 C0 0.67 0 0.34 0 0 Z " fill="#F58425" transform="translate(657,373)"/>
<path d="M0 0 C2.72957339 2.35735884 3.88893396 4.58133526 5 8 C5 8.99 5 9.98 5 11 C3.35 11 1.7 11 0 11 C-0.66 8.69 -1.32 6.38 -2 4 C-1.34 4 -0.68 4 0 4 C0 2.68 0 1.36 0 0 Z " fill="#556572" transform="translate(352,733)"/>
<path d="M0 0 C3.0625 0.1875 3.0625 0.1875 5.0625 2.1875 C5.0625 3.1775 5.0625 4.1675 5.0625 5.1875 C1.7625 5.1875 -1.5375 5.1875 -4.9375 5.1875 C-3.69966216 0.23614865 -3.69966216 0.23614865 0 0 Z " fill="#E6E9EA" transform="translate(623.9375,726.8125)"/>
<path d="M0 0 C0.33 0 0.66 0 1 0 C0.38758389 7.47147651 0.38758389 7.47147651 -1.375 9.875 C-2.90476487 10.93406799 -4.45189322 11.96792881 -6 13 C-5.63195535 6.86592242 -4.15701288 4.26093821 0 0 Z " fill="#4D5E6B" transform="translate(341,721)"/>
<path d="M0 0 C1.8871875 0.061875 1.8871875 0.061875 3.8125 0.125 C3.8125 0.455 3.8125 0.785 3.8125 1.125 C1.8325 1.455 -0.1475 1.785 -2.1875 2.125 C-2.249375 2.74375 -2.31125 3.3625 -2.375 4 C-2.643125 4.70125 -2.91125 5.4025 -3.1875 6.125 C-4.0125 6.41375 -4.8375 6.7025 -5.6875 7 C-6.5125 7.37125 -7.3375 7.7425 -8.1875 8.125 C-9.08580839 11.17772465 -9.08580839 11.17772465 -9.1875 14.125 C-9.5175 14.125 -9.8475 14.125 -10.1875 14.125 C-10.48147316 9.12745633 -10.2854156 6.14081652 -7.1875 2.125 C-4.09861478 0.06574319 -3.47814073 -0.1140374 0 0 Z " fill="#6B7A85" transform="translate(515.1875,722.875)"/>
<path d="M0 0 C0.66 0.33 1.32 0.66 2 1 C1.85892253 2.45880109 1.71197585 3.91703551 1.5625 5.375 C1.48128906 6.18710937 1.40007813 6.99921875 1.31640625 7.8359375 C1 10 1 10 0 12 C-0.66 12 -1.32 12 -2 12 C-3.28317892 8.15046324 -3.06643637 5.05261865 -3 1 C-2.01 0.67 -1.02 0.34 0 0 Z " fill="#475965" transform="translate(532,728)"/>
<path d="M0 0 C-2.45306164 2.45306164 -3.42884724 2.32407169 -6.8125 2.5625 C-10.27889008 2.84342307 -13.60512936 3.20786352 -17 4 C-17.66 3.01 -18.32 2.02 -19 1 C-12.31349436 -0.48725585 -6.76106962 -1.27567351 0 0 Z " fill="#D9DEE1" transform="translate(421,557)"/>
<path d="M0 0 C-2.72114095 1.23006372 -5.44935194 2.43391679 -8.1875 3.625 C-9.34088867 4.1509375 -9.34088867 4.1509375 -10.51757812 4.6875 C-16.31719008 7.17660385 -16.31719008 7.17660385 -20.05078125 6.2109375 C-20.69402344 5.81132812 -21.33726562 5.41171875 -22 5 C-18.34769809 2.93565544 -14.46285314 1.88773898 -10.4375 0.8125 C-9.76525391 0.62236328 -9.09300781 0.43222656 -8.40039062 0.23632812 C-5.06224704 -0.66202035 -3.34942122 -1.11647374 0 0 Z " fill="#399DB1" transform="translate(575,492)"/>
<path d="M0 0 C0.66 0.99 1.32 1.98 2 3 C2.66 3.33 3.32 3.66 4 4 C0.7 7.3 -2.6 10.6 -6 14 C-6.33 13.34 -6.66 12.68 -7 12 C-5.56640625 9.1796875 -5.56640625 9.1796875 -3.5625 5.875 C-2.57443359 4.23144531 -2.57443359 4.23144531 -1.56640625 2.5546875 C-1.04949219 1.71164062 -0.53257812 0.86859375 0 0 Z " fill="#D34320" transform="translate(425,327)"/>
<path d="M0 0 C0 0.99 0 1.98 0 3 C-3.15506142 3.93619813 -5.96586502 4.1057123 -9.25 4.0625 C-10.14203125 4.05347656 -11.0340625 4.04445313 -11.953125 4.03515625 C-12.62859375 4.02355469 -13.3040625 4.01195312 -14 4 C-12 1 -12 1 -8.6875 0.3125 C-5.75903238 0.06432478 -2.9340986 -0.08891208 0 0 Z " fill="#DEE3E5" transform="translate(400,556)"/>
<path d="M0 0 C0.33 0 0.66 0 1 0 C1.33 2.64 1.66 5.28 2 8 C3.65 8.33 5.3 8.66 7 9 C7 9.66 7 10.32 7 11 C7.66 11.66 8.32 12.32 9 13 C6.03 13 3.06 13 0 13 C-0.66 11.02 -1.32 9.04 -2 7 C-1.34 7 -0.68 7 0 7 C0 4.69 0 2.38 0 0 Z " fill="#6A7A86" transform="translate(486,731)"/>
<path d="M0 0 C0.66 0 1.32 0 2 0 C1.60856977 2.27029534 1.11258722 3.83408198 -0.1875 5.75 C-2.78687216 7.54267046 -4.92339216 7.20510719 -8 7 C-8.33 6.01 -8.66 5.02 -9 4 C-8.43410156 3.79503906 -7.86820312 3.59007812 -7.28515625 3.37890625 C-6.55167969 3.10949219 -5.81820313 2.84007812 -5.0625 2.5625 C-4.33160156 2.29566406 -3.60070312 2.02882813 -2.84765625 1.75390625 C-1.01694322 1.14613052 -1.01694322 1.14613052 0 0 Z " fill="#485967" transform="translate(424,737)"/>
<path d="M0 0 C2.97 0 5.94 0 9 0 C9 0.33 9 0.66 9 1 C8.030625 1.309375 7.06125 1.61875 6.0625 1.9375 C3.15934208 2.69523342 3.15934208 2.69523342 2 4 C1.84313751 5.55948542 1.74923361 7.12542668 1.68359375 8.69140625 C1.62075195 10.10776367 1.62075195 10.10776367 1.55664062 11.55273438 C1.51732422 12.54595703 1.47800781 13.53917969 1.4375 14.5625 C1.39431641 15.55958984 1.35113281 16.55667969 1.30664062 17.58398438 C1.20019702 20.0558415 1.09818072 22.5278031 1 25 C0.67 25 0.34 25 0 25 C0 16.75 0 8.5 0 0 Z " fill="#F37D11" transform="translate(599,622)"/>
<path d="M0 0 C3.3 0.33 6.6 0.66 10 1 C9.67 1.99 9.34 2.98 9 4 C6.38502661 5.23867161 3.74488051 6.08503983 1 7 C0.67 4.69 0.34 2.38 0 0 Z " fill="#DEE4E6" transform="translate(377,555)"/>
<path d="M0 0 C1.65 0 3.3 0 5 0 C3.68 0.33 2.36 0.66 1 1 C1 4.3 1 7.6 1 11 C0.01 11.495 0.01 11.495 -1 12 C-1 12.66 -1 13.32 -1 14 C-2.98 14 -4.96 14 -7 14 C-6.67 13.01 -6.34 12.02 -6 11 C-6.66 10.67 -7.32 10.34 -8 10 C-5.36 10 -2.72 10 0 10 C0 6.7 0 3.4 0 0 Z " fill="#75828B" transform="translate(496,713)"/>
<path d="M0 0 C2.5654594 2.5654594 2.54046087 4.47686668 3 8 C-1.81449408 7.51855059 -4.60171741 7.1991413 -9 5 C-6.03 4.34 -3.06 3.68 0 3 C0 2.01 0 1.02 0 0 Z " fill="#536472" transform="translate(498,736)"/>
<path d="M0 0 C0.66 0.33 1.32 0.66 2 1 C2 1.99 2 2.98 2 4 C3.17369141 4.07347656 3.17369141 4.07347656 4.37109375 4.1484375 C5.38300781 4.22320313 6.39492188 4.29796875 7.4375 4.375 C8.95150391 4.47941406 8.95150391 4.47941406 10.49609375 4.5859375 C11.73552734 4.79089844 11.73552734 4.79089844 13 5 C13.33 5.66 13.66 6.32 14 7 C3.44191344 7.3690205 3.44191344 7.3690205 -1 5 C-0.67 3.35 -0.34 1.7 0 0 Z " fill="#CDD6DA" transform="translate(379,563)"/>
<path d="M0 0 C0.66 0.33 1.32 0.66 2 1 C2 1.66 2 2.32 2 3 C2.94875 2.484375 3.8975 1.96875 4.875 1.4375 C5.90625 0.963125 6.9375 0.48875 8 0 C8.66 0.33 9.32 0.66 10 1 C8.04414675 2.00484204 6.08523763 3.00373805 4.125 4 C3.03445313 4.556875 1.94390625 5.11375 0.8203125 5.6875 C-2 7 -2 7 -4 7 C-2.92598892 4.08482708 -2.22189824 2.22189824 0 0 Z " fill="#1A576A" transform="translate(583,484)"/>
<path d="M0 0 C0.33 0 0.66 0 1 0 C1.12375 1.0725 1.2475 2.145 1.375 3.25 C1.89719785 6.3831871 2.29117129 8.38649726 4 11 C4.66 11.33 5.32 11.66 6 12 C4.35 12.33 2.7 12.66 1 13 C-0.625 11.5625 -0.625 11.5625 -2 9 C-1.66417503 5.90294753 -0.88564868 2.98189626 0 0 Z " fill="#586976" transform="translate(533,731)"/>
<path d="M0 0 C1.32 0.33 2.64 0.66 4 1 C3.34 2.98 2.68 4.96 2 7 C0.35 7.33 -1.3 7.66 -3 8 C-1.125 2.25 -1.125 2.25 0 0 Z " fill="#5B6A77" transform="translate(392,745)"/>
<path d="M0 0 C0.66 0.33 1.32 0.66 2 1 C1.67 3.97 1.34 6.94 1 10 C-0.32 10 -1.64 10 -3 10 C-3.29296875 3.9453125 -3.29296875 3.9453125 -3 2 C-2.01 1.34 -1.02 0.68 0 0 Z " fill="#596B78" transform="translate(642,743)"/>
<path d="M0 0 C1.32 0 2.64 0 4 0 C4 1.98 4 3.96 4 6 C5.98 6 7.96 6 10 6 C10 7.32 10 8.64 10 10 C7.625 10.1875 7.625 10.1875 5 10 C2.70986347 6.5647952 2.82157027 5.014669 3 1 C2.01 0.67 1.02 0.34 0 0 Z " fill="#76838D" transform="translate(602,717)"/>
<path d="M0 0 C-2.1385485 2.1385485 -3.13275314 2.42655063 -6 3 C-5.67 3.66 -5.34 4.32 -5 5 C-6.98 5 -8.96 5 -11 5 C-11 3.68 -11 2.36 -11 1 C-3.57142857 -1.42857143 -3.57142857 -1.42857143 0 0 Z " fill="#DA5027" transform="translate(531,521)"/>
<path d="M0 0 C0.66 0.33 1.32 0.66 2 1 C1 4 1 4 -1.65234375 5.640625 C-2.73644531 6.17171875 -3.82054687 6.7028125 -4.9375 7.25 C-6.01902344 7.79140625 -7.10054687 8.3328125 -8.21484375 8.890625 C-9.13394531 9.25671875 -10.05304687 9.6228125 -11 10 C-11.66 9.67 -12.32 9.34 -13 9 C-8.71 6.03 -4.42 3.06 0 0 Z " fill="#CCE7E9" transform="translate(548,389)"/>
<path d="M0 0 C0.66 0 1.32 0 2 0 C2.36923077 6.52307692 2.36923077 6.52307692 0.5 8.9375 C0.005 9.288125 -0.49 9.63875 -1 10 C-1.9765625 3.9453125 -1.9765625 3.9453125 -2 2 C-1.34 1.34 -0.68 0.68 0 0 Z " fill="#485967" transform="translate(547,731)"/>
<path d="M0 0 C0.33 1.32 0.66 2.64 1 4 C0.34 4 -0.32 4 -1 4 C-1 7.63 -1 11.26 -1 15 C-1.33 15 -1.66 15 -2 15 C-2.33 12.03 -2.66 9.06 -3 6 C-3.33 6 -3.66 6 -4 6 C-4 4.35 -4 2.7 -4 1 C-2.68 0.67 -1.36 0.34 0 0 Z " fill="#5A6A78" transform="translate(644,724)"/>
<path d="M0 0 C2.97 0 5.94 0 9 0 C9.33 1.32 9.66 2.64 10 4 C6.7 3.34 3.4 2.68 0 2 C0 1.34 0 0.68 0 0 Z " fill="#52616B" transform="translate(584,723)"/>
<path d="M0 0 C0.68513672 -0.01224609 1.37027344 -0.02449219 2.07617188 -0.03710938 C3.86484112 -0.04237533 5.65298848 0.06549979 7.4375 0.1875 C8.0975 0.8475 8.7575 1.5075 9.4375 2.1875 C8.4475 2.6825 8.4475 2.6825 7.4375 3.1875 C6.7775 2.8575 6.1175 2.5275 5.4375 2.1875 C3.81481009 2.09138248 2.18802694 2.05767648 0.5625 2.0625 C-0.30117188 2.05992187 -1.16484375 2.05734375 -2.0546875 2.0546875 C-4.54057126 2.09170726 -4.54057126 2.09170726 -6.7578125 2.8203125 C-7.65113281 3.00207031 -7.65113281 3.00207031 -8.5625 3.1875 C-9.2225 2.5275 -9.8825 1.8675 -10.5625 1.1875 C-6.99164986 -0.00278338 -3.7164317 0.00351602 0 0 Z " fill="#F78C1B" transform="translate(630.5625,620.8125)"/>
<path d="M0 0 C0.33 0 0.66 0 1 0 C1.09688221 5.44693314 1.12862175 10.63904667 0 16 C-0.66 16 -1.32 16 -2 16 C-2 12.7 -2 9.4 -2 6 C-1.34 6 -0.68 6 0 6 C0 4.02 0 2.04 0 0 Z " fill="#485965" transform="translate(364,727)"/>
<path d="M0 0 C1.2065625 0.0309375 1.2065625 0.0309375 2.4375 0.0625 C2.4375 1.3825 2.4375 2.7025 2.4375 4.0625 C0.1275 4.3925 -2.1825 4.7225 -4.5625 5.0625 C-3.43829114 0.08386076 -3.43829114 0.08386076 0 0 Z " fill="#4F5E6B" transform="translate(563.5625,722.9375)"/>
<path d="M0 0 C1.32 0 2.64 0 4 0 C5.59138085 4.17737474 6.21278058 7.53160785 6 12 C5.67 12 5.34 12 5 12 C4.67 9.03 4.34 6.06 4 3 C2.35 3.33 0.7 3.66 -1 4 C-0.67 2.68 -0.34 1.36 0 0 Z " fill="#125C73" transform="translate(566,517)"/>
<path d="M0 0 C0.33 0 0.66 0 1 0 C1.08114106 1.77007714 1.13925505 3.54122098 1.1875 5.3125 C1.23970703 6.79169922 1.23970703 6.79169922 1.29296875 8.30078125 C1 11 1 11 -0.51171875 12.85546875 C-1.00285156 13.23316406 -1.49398437 13.61085938 -2 14 C-1.85923685 12.0412957 -1.7122324 10.08303907 -1.5625 8.125 C-1.48128906 7.03445313 -1.40007813 5.94390625 -1.31640625 4.8203125 C-1 2 -1 2 0 0 Z " fill="#32C3B7" transform="translate(644,402)"/>
<path d="M0 0 C2.475 0.495 2.475 0.495 5 1 C5 2.32 5 3.64 5 5 C3.35 5 1.7 5 0 5 C0 3.35 0 1.7 0 0 Z " fill="#5C6F81" transform="translate(662,739)"/>
<path d="M0 0 C3.4375 -0.375 3.4375 -0.375 7 0 C7.99 0.99 8.98 1.98 10 3 C6.04 3 2.08 3 -2 3 C-1.34 2.01 -0.68 1.02 0 0 Z " fill="#435664" transform="translate(340,733)"/>
<path d="M0 0 C0 1.32 0 2.64 0 4 C-1.65 4.33 -3.3 4.66 -5 5 C-5 4.34 -5 3.68 -5 3 C-6.65 2.67 -8.3 2.34 -10 2 C-10 1.67 -10 1.34 -10 1 C-2.25 0 -2.25 0 0 0 Z " fill="#76838E" transform="translate(633,739)"/>
<path d="M0 0 C1.32 0 2.64 0 4 0 C3.67 1.65 3.34 3.3 3 5 C2.01 5 1.02 5 0 5 C-0.5625 3.0625 -0.5625 3.0625 -1 1 C-0.67 0.67 -0.34 0.34 0 0 Z " fill="#536370" transform="translate(401,724)"/>
<path d="M0 0 C6.0546875 -0.1953125 6.0546875 -0.1953125 8 0 C8.66 0.66 9.32 1.32 10 2 C9.34 2 8.68 2 8 2 C7.67 2.99 7.34 3.98 7 5 C5.68 4.34 4.36 3.68 3 3 C3.99 3 4.98 3 6 3 C6 2.34 6 1.68 6 1 C4.02 1 2.04 1 0 1 C0 0.67 0 0.34 0 0 Z " fill="#687681" transform="translate(620,723)"/>
<path d="M0 0 C2.31 0 4.62 0 7 0 C7 0.99 7 1.98 7 3 C4.69 3 2.38 3 0 3 C0 2.01 0 1.02 0 0 Z " fill="#495864" transform="translate(512,724)"/>
<path d="M0 0 C3.375 -0.125 3.375 -0.125 7 0 C7.66 0.66 8.32 1.32 9 2 C8.34 2.66 7.68 3.32 7 4 C4.69 3.01 2.38 2.02 0 1 C0 0.67 0 0.34 0 0 Z " fill="#F78A18" transform="translate(689,374)"/>
<path d="M0 0 C1.32 0.33 2.64 0.66 4 1 C3.67 2.65 3.34 4.3 3 6 C2.01 5.67 1.02 5.34 0 5 C0 3.35 0 1.7 0 0 Z " fill="#5D6D7A" transform="translate(457,725)"/>
<path d="M0 0 C-2.3773161 2.3773161 -3.70285207 2.67028521 -7 3 C-7.66 2.34 -8.32 1.68 -9 1 C-5.57367167 -0.61798838 -3.61944899 -1.34053666 0 0 Z " fill="#F18C22" transform="translate(688,622)"/>
<path d="M0 0 C3.875 1.75 3.875 1.75 5 4 C4.34 4.66 3.68 5.32 3 6 C1.68 4.35 0.36 2.7 -1 1 C-0.67 0.67 -0.34 0.34 0 0 Z " fill="#546471" transform="translate(421,724)"/>
<path d="M0 0 C0 0.33 0 0.66 0 1 C-1.0725 1.28875 -2.145 1.5775 -3.25 1.875 C-6.09400364 2.72820109 -8.43508983 3.5636503 -11 5 C-9.07089686 -0.78730941 -5.38986894 -0.20339128 0 0 Z " fill="#6A7B86" transform="translate(420,723)"/>
  </g>
</svg>
